<?xml version="1.0" encoding="UTF-8"?><svg id="Layer_1" xmlns="http://www.w3.org/2000/svg" xmlns:xlink="http://www.w3.org/1999/xlink" viewBox="0 0 409.76 377.05"><defs><style>.cls-1{fill:url(#linear-gradient-2);}.cls-2{fill:url(#linear-gradient-17);}.cls-3{fill:url(#linear-gradient-15);}.cls-4{fill:url(#linear-gradient-18);}.cls-5{fill:none;stroke:url(#linear-gradient-14);stroke-miterlimit:10;stroke-width:3px;}.cls-6{fill:url(#linear-gradient-28);}.cls-7{fill:url(#linear-gradient-20);}.cls-8{fill:url(#linear-gradient-6);}.cls-9{fill:url(#linear-gradient-32);}.cls-10{fill:url(#linear-gradient-11);}.cls-11{fill:url(#linear-gradient-10);}.cls-12{fill:url(#linear-gradient-16);}.cls-13{fill:url(#linear-gradient-31);}.cls-14{fill:url(#linear-gradient-21);}.cls-15{fill:url(#linear-gradient-25);}.cls-16{fill:url(#linear-gradient-5);}.cls-17{fill:url(#linear-gradient-7);}.cls-18{fill:url(#linear-gradient-24);}.cls-19{fill:url(#linear-gradient-9);}.cls-20{fill:url(#linear-gradient-22);}.cls-21{fill:url(#linear-gradient-3);}.cls-22{fill:url(#linear-gradient);}.cls-23{fill:url(#linear-gradient-27);}.cls-24{fill:url(#linear-gradient-33);}.cls-25{fill:url(#linear-gradient-29);}.cls-26{fill:url(#linear-gradient-30);}.cls-27{fill:url(#linear-gradient-23);}.cls-28{fill:url(#linear-gradient-19);}.cls-29{fill:url(#linear-gradient-4);}.cls-30{fill:url(#linear-gradient-8);}.cls-31{fill:url(#linear-gradient-12);}.cls-32{fill:url(#linear-gradient-13);}.cls-33{fill:url(#linear-gradient-26);}</style><linearGradient id="linear-gradient" x1="250.49" y1="163.92" x2="263.35" y2="163.92" gradientUnits="userSpaceOnUse"><stop offset="0" stop-color="#b99d22"/><stop offset="1" stop-color="#635412"/></linearGradient><linearGradient id="linear-gradient-2" x1="248.53" y1="156.94" x2="260.73" y2="156.94" xlink:href="#linear-gradient"/><linearGradient id="linear-gradient-3" x1="246.4" y1="153.25" x2="258.6" y2="153.25" xlink:href="#linear-gradient"/><linearGradient id="linear-gradient-4" x1="244.27" y1="149.57" x2="256.48" y2="149.57" xlink:href="#linear-gradient"/><linearGradient id="linear-gradient-5" x1="273.08" y1="182.28" x2="282.99" y2="182.28" xlink:href="#linear-gradient"/><linearGradient id="linear-gradient-6" x1="269.68" y1="178.3" x2="278.66" y2="178.3" xlink:href="#linear-gradient"/><linearGradient id="linear-gradient-7" x1="266" y1="176.18" x2="274.98" y2="176.18" xlink:href="#linear-gradient"/><linearGradient id="linear-gradient-8" x1="243.87" y1="101.86" x2="258.91" y2="101.86" xlink:href="#linear-gradient"/><linearGradient id="linear-gradient-9" x1="283.51" y1="20.16" x2="323.83" y2="20.16" xlink:href="#linear-gradient"/><linearGradient id="linear-gradient-10" x1="263.35" y1="50.89" x2="344.79" y2="50.89" xlink:href="#linear-gradient"/><linearGradient id="linear-gradient-11" x1="300.07" y1="132.48" x2="364.17" y2="132.48" gradientTransform="translate(37.05 329.13) rotate(-59.96)" xlink:href="#linear-gradient"/><linearGradient id="linear-gradient-12" x1="294.08" y1="110.9" x2="313.19" y2="110.9" gradientTransform="translate(105.93 -133.39) rotate(29.79)" xlink:href="#linear-gradient"/><linearGradient id="linear-gradient-13" x1="231.36" y1="129.22" x2="375.99" y2="129.22" xlink:href="#linear-gradient"/><linearGradient id="linear-gradient-14" x1="222.42" y1="129.22" x2="384.93" y2="129.22" xlink:href="#linear-gradient"/><linearGradient id="linear-gradient-15" x1="262.33" y1="82.17" x2="276.23" y2="82.17" xlink:href="#linear-gradient"/><linearGradient id="linear-gradient-16" x1="270.55" y1="78.49" x2="280.04" y2="78.49" xlink:href="#linear-gradient"/><linearGradient id="linear-gradient-17" x1="294.11" y1="69.54" x2="303.39" y2="69.54" xlink:href="#linear-gradient"/><linearGradient id="linear-gradient-18" x1="303.86" y1="69.54" x2="307.8" y2="69.54" xlink:href="#linear-gradient"/><linearGradient id="linear-gradient-19" x1="308.85" y1="69.54" x2="312.8" y2="69.54" xlink:href="#linear-gradient"/><linearGradient id="linear-gradient-20" x1="301.46" y1="188.48" x2="310.82" y2="188.48" xlink:href="#linear-gradient"/><linearGradient id="linear-gradient-21" x1="296.85" y1="188.58" x2="300.8" y2="188.58" xlink:href="#linear-gradient"/><linearGradient id="linear-gradient-22" x1="329.1" y1="180.71" x2="339.51" y2="180.71" xlink:href="#linear-gradient"/><linearGradient id="linear-gradient-23" x1="348.88" y1="155.27" x2="361.38" y2="155.27" xlink:href="#linear-gradient"/><linearGradient id="linear-gradient-24" x1="345.89" y1="163.49" x2="359.04" y2="163.49" xlink:href="#linear-gradient"/><linearGradient id="linear-gradient-25" x1="347.72" y1="102.44" x2="360.22" y2="102.44" xlink:href="#linear-gradient"/><linearGradient id="linear-gradient-26" x1="345.22" y1="98.11" x2="357.72" y2="98.11" xlink:href="#linear-gradient"/><linearGradient id="linear-gradient-27" x1="329.9" y1="79.4" x2="339.39" y2="79.4" xlink:href="#linear-gradient"/><linearGradient id="linear-gradient-28" x1="357.09" y1="134.23" x2="369.25" y2="134.23" xlink:href="#linear-gradient"/><linearGradient id="linear-gradient-29" x1="357.09" y1="129.23" x2="369.25" y2="129.23" xlink:href="#linear-gradient"/><linearGradient id="linear-gradient-30" x1="357.09" y1="124.23" x2="369.25" y2="124.23" xlink:href="#linear-gradient"/><linearGradient id="linear-gradient-31" x1="238.39" y1="133.92" x2="250.55" y2="133.92" xlink:href="#linear-gradient"/><linearGradient id="linear-gradient-32" x1="238.39" y1="126.67" x2="250.55" y2="126.67" xlink:href="#linear-gradient"/><linearGradient id="linear-gradient-33" x1="298.29" y1="43.32" x2="309.86" y2="43.32" xlink:href="#linear-gradient"/></defs><g><path class="cls-22" d="M251.02,161.61c.5,.61,.77,.66,2.53,.19,1.35-.39,5.76-1.62,9.54-2.76l.25,.43c-2.57,2.39-5.81,5.47-7.45,7.06-1.06,1.02-1.15,1.29-.9,1.96l-.53,.31-1.63-2.82,.54-.31c.57,.64,.74,.56,1.36,0,1.09-1,3.87-3.63,5.56-5.25l-.02-.03c-2.55,.75-5.2,1.54-6.86,2.11-1.18,.4-1.36,.52-1.04,1.45l-.53,.31-1.35-2.34,.53-.31Z"/><path class="cls-1" d="M260.73,155.34l-.52,.3c-.55-.72-.71-.75-2.09,.05l-6.31,3.64c-1.38,.79-1.44,.95-1.09,1.79l-.52,.3-1.68-2.9,.52-.3c.54,.72,.7,.74,2.08-.06l6.32-3.64c1.37-.8,1.45-.95,1.09-1.78l.51-.3,1.68,2.9Z"/><path class="cls-21" d="M258.6,151.67l-.52,.31c-.55-.73-.71-.75-2.09,.04l-6.32,3.65c-1.38,.8-1.44,.95-1.09,1.78l-.51,.3-1.68-2.9,.52-.3c.55,.73,.7,.74,2.08-.05l6.31-3.65c1.38-.79,1.45-.94,1.09-1.77l.52-.31,1.68,2.9Z"/><path class="cls-29" d="M256.48,147.99l-.52,.3c-.55-.73-.71-.75-2.09,.04l-6.32,3.65c-1.38,.79-1.44,.95-1.09,1.78l-.52,.3-1.68-2.9,.52-.31c.55,.73,.71,.75,2.08-.05l6.32-3.64c1.37-.8,1.44-.94,1.09-1.78l.52-.3,1.68,2.9Z"/></g><g><path class="cls-16" d="M273.39,184.16c.73,.27,.99,.18,2.28-1.1,.99-1.01,4.18-4.28,6.89-7.17l.43,.25c-1.02,3.36-2.29,7.64-2.92,9.85-.41,1.4-.36,1.7,.21,2.15l-.31,.54-2.82-1.63,.31-.54c.81,.27,.91,.12,1.18-.69,.43-1.41,1.53-5.07,2.18-7.33l-.03-.02c-1.83,1.93-3.73,3.93-4.88,5.26-.82,.93-.91,1.13-.18,1.77l-.31,.54-2.34-1.35,.31-.53Z"/><path class="cls-8" d="M278.66,173.87l-.3,.52c-.83-.35-.99-.29-1.78,1.09l-3.64,6.32c-.8,1.38-.77,1.54-.05,2.09l-.3,.52-2.91-1.68,.3-.52c.83,.35,.98,.29,1.78-1.09l3.64-6.31c.79-1.38,.78-1.54,.05-2.08l.3-.52,2.9,1.67Z"/><path class="cls-17" d="M274.98,171.75l-.3,.53c-.84-.35-.99-.29-1.79,1.08l-3.65,6.32c-.8,1.37-.77,1.54-.04,2.09l-.3,.52-2.9-1.68,.3-.52c.83,.35,.98,.28,1.78-1.09l3.64-6.32c.8-1.38,.78-1.54,.06-2.08l.3-.52,2.9,1.67Z"/></g><path class="cls-30" d="M256.85,104.22l-.52-.3c.28-.85,.09-.96-.57-1.06-.54-.05-1.57-.16-3.91-.42,.84,1.24,1.65,2.34,2.23,3.1,.53,.68,.72,.66,1.34-.04l.52,.3-1.67,2.89-.52-.29c.28-.71,.27-1.26-.08-1.93-.44-.77-1.37-2.3-2.59-4.08-1.65-.17-3.12-.32-4.62-.46-1.11-.1-1.5,.02-2.09,.78l-.51-.3,1.93-3.35,.52,.3c-.23,.78-.05,.88,.43,.93,.81,.12,1.94,.24,3.31,.35-.55-.88-1.18-1.76-1.75-2.48-.49-.62-.68-.66-1.3,.01l-.52-.3,1.62-2.82,.52,.3c-.34,.88-.32,1.26,.24,2.27,.38,.7,1.01,1.66,1.9,3.06,1.87,.17,3.57,.33,5.3,.48,1.36,.1,1.73-.05,2.32-.8l.51,.3-2.06,3.57Z"/><path class="cls-19" d="M283.51,20.16l10.63-1.83s-.58-3.68,3.24-3.82c-1.03,1.03-.91,2.98,.38,4.07,1.28,1.09,3.72,.79,4.41,.09,.69-.7,1-3.13-.09-4.42-1.09-1.3-3.05-1.4-4.07-.37,.14-3.83,3.83-3.25,3.83-3.25l1.82-10.63,1.83,10.63s3.69-.58,3.82,3.25c-1.03-1.03-2.98-.92-4.07,.37-1.09,1.28-.78,3.72-.09,4.42,.69,.7,3.13,1,4.41-.09,1.29-1.09,1.41-3.04,.38-4.07,3.82,.14,3.24,3.82,3.24,3.82l10.63,1.83-10.63,1.83s.58,3.68-3.24,3.82c1.02-1.02,.91-2.98-.38-4.07-1.28-1.09-3.72-.78-4.41-.09-.69,.69-1,3.13,.09,4.41,1.09,1.3,3.04,1.41,4.07,.39-.14,3.82-3.82,3.24-3.82,3.24l-1.83,10.63-1.82-10.63s-3.69,.58-3.83-3.24c1.03,1.02,2.98,.91,4.07-.39,1.09-1.28,.78-3.72,.09-4.41-.7-.7-3.14-1.01-4.41,.09-1.3,1.09-1.41,3.05-.38,4.07-3.82-.14-3.24-3.82-3.24-3.82l-10.63-1.83Z"/><path class="cls-11" d="M304.08,57.62c-.4,0-.62-.32-.73-.85,0,0-.28-.94-.82-1.55-.96-1.09-2.81-4.94-7.07-4.94-7.7,0-15.64,7.26-25.43,6.63-3.51-.22-6.68-2.86-6.68-6.38s3.16-6.39,6.69-6.38c1.21,0,3.06,.26,5.5,1.62,3.83,2.14,5.57,2.3,5.57,2.3,.33,0,.6,.28,.6,.61s-.27,.62-.6,.62c0,0-1.35,.18-5.26,2.54-2.38,1.44-3.64,1.55-4.85,1.55-1.92,0-3.52-1.33-3.52-2.97,0-1.54,1.15-2.78,2.55-2.78,1.07,0,1.94,.73,1.94,1.63,0,0,.04,.87-.6,.87-.16,0-.28-.12-.28-.27,0-.19-.22-.66-.88-.66s-1.18,.41-1.18,1.21,1,1.47,2.21,1.47,2.87-.96,2.87-2.8-2.13-3.32-4.05-3.32-5.01,1.52-5.01,4.57,2.62,5.09,6.04,5.09,7.26-1.88,7.26-1.88c17.53-9.92,25.74-9.28,25.74-9.28,0,0,8.21-.63,25.73,9.28,0,0,3.83,1.88,7.25,1.88s6.04-2.03,6.04-5.09-3.09-4.57-5.01-4.57-4.05,1.48-4.05,3.32,1.65,2.8,2.87,2.8,2.21-.66,2.21-1.47-.51-1.21-1.18-1.21-.88,.47-.88,.66c0,.16-.12,.27-.28,.27-.64,0-.6-.87-.6-.87,0-.9,.86-1.63,1.93-1.63,1.4,0,2.54,1.25,2.54,2.78,0,1.64-1.61,2.97-3.52,2.97-1.21,0-2.46-.11-4.86-1.55-3.9-2.36-5.25-2.54-5.25-2.54-.33,0-.61-.29-.61-.62s.28-.61,.61-.61c0,0,1.74-.15,5.57-2.3,2.44-1.35,4.29-1.61,5.49-1.62,3.52-.02,6.69,2.85,6.69,6.38s-3.16,6.16-6.68,6.38c-9.8,.63-17.73-6.63-25.42-6.63-4.27,0-6.12,3.85-7.08,4.94-.54,.61-.81,1.55-.81,1.55-.12,.52-.33,.85-.72,.85Z"/><path class="cls-10" d="M333.3,80.7l-15.9,27.5c-.13,.23-.23,.32-.4,.31-.42-.02-1.22-.04-1.46-.05-.36,0-.43,.28-.15,.44l.27,.16c.17,1.34-.47,2.27-1.66,2.55-.26,.06-.5-.09-.41-.3,.19-.46-.19-1-.75-.92-.51,.07-.79,.75-.33,1.19,.21,.19,.06,.58-.25,.59-.87,0-1.57,.25-2.28,.94-.11,.11-.17,.1-.2,.03-.13-.32-.64-.36-.82-.04-.1,.18-.07,.36,.02,.5-.29,.16-.58,.38-.84,.7-.69,.86-1.03,2.19-.51,3.38,.14,.34,.12,.37-.3,.46-.29,.07-.46,.13-.7,.23-.41,.17-.42,.46,.2,.61,1.09,.26,1.63,.87,1.77,1.68-.34,.31-.65,.68-.91,1.12-.51,.88-.71,2.18-.56,3.28,.01,.08,.01,.15,.01,.2-.02,.04-.05,.09-.08,.13-.03,.01-.08,.01-.15,0-.95-.16-1.94,.27-2.46,1.16-.44,.76-.41,1.66,0,2.38-1.47-.27-3.02,.39-3.82,1.77-1.01,1.75-.43,3.98,1.3,4.98s3.94,.39,4.95-1.36c.8-1.38,.6-3.05-.36-4.19,.82,0,1.62-.42,2.06-1.19,.51-.89,.4-1.96-.22-2.71-.04-.05-.06-.09-.07-.13,.03-.04,.05-.09,.08-.13,.05-.03,.1-.06,.18-.09,1.02-.42,2.05-1.25,2.56-2.12,.25-.44,.41-.89,.52-1.34,.78-.28,1.57-.12,2.34,.7,.43,.46,.68,.31,.62-.13-.03-.25-.06-.43-.15-.72-.13-.41-.11-.44,.25-.48,1.28-.15,2.26-1.11,2.67-2.14,.15-.38,.2-.74,.19-1.07,.17,.02,.34-.05,.45-.23,.19-.32-.09-.74-.44-.69-.08,0-.11-.04-.08-.19,.25-.95,.12-1.69-.32-2.44-.15-.27,.11-.59,.39-.51,.61,.18,1.05-.4,.86-.88-.21-.52-.86-.58-1.17-.19-.14,.18-.39,.05-.46-.21-.36-1.17,.13-2.19,1.38-2.71l.26,.15c.29,.17,.49-.04,.31-.35-.11-.2-.54-.88-.77-1.24-.09-.14-.06-.27,.07-.5l15.9-27.5c.28-.49,.25-.8,.1-.89s-.44,.04-.72,.53Zm-29.02,52.09c-.16,.28-.53,.39-.81,.22s-.38-.53-.22-.82,.53-.39,.82-.22,.37,.53,.21,.81Zm5.13-18.28c.02,.98,.76,1.67,1.39,1.77,.19,.03,.26,.11,.08,.37-.3,.42-.76,.65-1.17,.78-.26,.08-.24,.25,0,.31,.29,.08,.86-.12,1.06-.25,.13-.08,.17-.08,.13,.11-.08,.37-.08,.72-.07,1.05-.05-.02-.11-.04-.16-.06-.04,0-.1,0-.17,0-2.43-.38-2.63-3.19-1.09-4.08Zm2.35,4.52s-.07-.05-.11-.06c-.06-.03-.13-.05-.2-.08-.11-.46,.01-1.73,.54-2.64,.64-1.11,1.92-2.01,2.23-1.83s.17,1.73-.47,2.84c-.51,.88-1.5,1.61-1.98,1.77Zm-1.86,.64c.05,0,.1,.01,.15,.02-.14,.06-.27,.13-.41,.21-.01-.17,.06-.23,.26-.23Zm.99,1.82c-.31,.16-.61,.34-.78,.48-.2,.18-.29,.2-.36,.16-.08-.05-.09-.14-.04-.4,.04-.22,.05-.57,.03-.92,.47-.28,.88-.44,.98-.38s.18,.5,.16,1.05Zm-2.54,.65c.06-.1,.14-.2,.21-.3-.11,.62-.35,1.3-.69,2.01,.03-.54,.16-1.16,.48-1.7Zm-2.12,4.61c-.22,.35-.46,.71-.71,1.07-.02-.21,0-.42,.11-.61,.14-.24,.35-.39,.6-.46Zm.71,1.89c.19-.4,.38-.78,.57-1.14,.06,.24,.03,.51-.11,.74-.11,.19-.28,.31-.46,.4Zm3.51-5.29c-.31,.54-.79,.97-1.24,1.26,.44-.64,.91-1.19,1.4-1.6-.05,.12-.1,.23-.16,.34Zm1.37-2.57c.1,.16,.08,.26-.07,.33,0-.16,0-.31-.02-.46,.03,.04,.06,.08,.09,.12Zm.64-1.06c-.11-.14-.13-.22-.07-.29-.01,0-.02-.02-.04-.02,.25-.14,.51-.31,.76-.53,.14-.13,.16-.09,.16,.06,0,.24,.1,.84,.31,1.05,.18,.18,.33,.11,.27-.15-.09-.42-.13-.93,.09-1.4,.14-.29,.24-.26,.36-.12,.41,.5,1.36,.79,2.22,.32,0,1.78-2.54,3-4.07,1.09Zm4.13-1.96c-.14,.09-.29,.17-.44,.23,0,0,0,0,.01,0,.04,0,.07,.02,.1,.03-.02,.01-.03,.03-.04,.03-.76,.41-1.77-.18-1.58-1.07,.04-.2,.15-.23,.35,0,.3,.34,.94,.22,1.06-.34,.1-.47-.41-.95-.94-.68-.18,.09-.22,0-.21-.17,.04-.4,.03-.89-.02-1.31-.04-.29,.09-.35,.42-.21,1.73,.71,2,2.62,1.28,3.49Zm-2.78-4.36c.28,.22,.29,.36,.03,.47-.39,.17-.82,.41-1.15,.64-.14,.1-.24,.11-.25-.09-.03-.6-.7-.8-1.06-.48-.43,.38-.21,1,.24,1.09,.3,.06,.32,.16,.17,.3-.68,.61-1.69,.03-1.72-.83-.04-1.28,2.06-2.41,3.75-1.1Zm1.43,.24c-.13,0-.25,0-.33,0-.17,.01-.18,0-.22-.02-.05-.03-.06-.04-.13-.19-.04-.07-.1-.18-.17-.29,.45-.37,.8-.56,.88-.52s.08,.45-.02,1.02Zm1.76-3.16s-.05,.02-.07,.02c.08-.41,.27-.54,.71-.3-.23,.07-.45,.17-.64,.28Zm-.75-.38s-.01-.04-.01-.07c0-.22-.02-.46-.08-.69,.42,.26,.4,.48,.09,.76Z"/><path class="cls-31" d="M323.79,113.76c-.14,.02-.21-.08-.14-.35,.45-1.75,.2-3.09-.6-4.47-.28-.49,.2-1.09,.71-.93,1.11,.32,1.93-.74,1.57-1.62-.39-.95-1.59-1.06-2.15-.33-.25,.34-.71,.09-.85-.38-.68-2.19,.25-4.1,2.63-5.05,.49-.19,.57-.63-.06-.62-.68,0-1.54,.3-2.18,.69-.21,.13-.39,0-.22-.3l4.68-8.17c.29-.51,.23-.9,.04-1.01s-.57,.04-.86,.54l-4.68,8.17c-.17,.3-.37,.21-.37-.04,.02-.74-.16-1.64-.51-2.23-.31-.54-.65-.25-.56,.27,.39,2.53-.79,4.3-3.02,4.82-.47,.11-.92-.16-.76-.54,.35-.85-.36-1.83-1.38-1.68-.94,.13-1.45,1.37-.6,2.18,.38,.35,.11,1.07-.46,1.08-1.59,.01-2.88,.48-4.16,1.75-.19,.2-.31,.19-.36,.06-.25-.58-1.17-.65-1.51-.06s.08,1.25,.67,1.29c.22,.02,.28,.18,.22,.57-.38,2.19,1.19,3.76,2.5,3.97,.35,.06,.49,.2,.15,.68-.37,.53-.87,.88-1.39,1.13-.71-.2-1.51,.09-2.14,.86-.67,.84-.98,2.13-.45,3.29,.15,.33,.13,.36-.28,.44-.29,.06-.46,.12-.69,.22-.41,.16-.41,.45,.21,.6,.42,.1,.75,.25,1.01,.44-.78,.64-1.5,1.43-2.06,2.4-.92,1.61-1.27,3.99-1.01,6,.06,.47,.07,.69-.39,.61-1.75-.29-3.56,.52-4.49,2.14-1.2,2.1-.48,4.77,1.62,5.97s4.76,.47,5.96-1.63c.93-1.63,.71-3.6-.43-4.96-.3-.35-.11-.46,.33-.64,1.87-.79,3.74-2.3,4.66-3.91,.56-.97,.87-2,1.03-2.99,.3,.13,.6,.34,.9,.65,.43,.46,.68,.31,.61-.13-.04-.25-.07-.42-.16-.71-.14-.4-.12-.43,.24-.47,1.27-.13,2.22-1.06,2.61-2.06,.36-.93,.2-1.77-.34-2.28-.04-.57,0-1.19,.27-1.77,.25-.53,.44-.48,.66-.21,.85,1.03,3,1.58,4.69,.15,.3-.25,.47-.28,.6-.1,.34,.49,1.12,.51,1.45-.08s-.18-1.35-.81-1.27Zm-3.33-9.75c.12-.07,.41,.07,.4,.2-.03,.55,.14,1.32,.29,1.98,.07,.31-.05,.52-.31,.45-.56-.14-1.51-.18-1.93-.16,0,0-.01,0-.02,0l1.39-2.42c.06-.01,.12-.02,.18-.05Zm-10.34,17.53c-.2,.17-.29,.2-.35,.16-.08-.05-.1-.13-.05-.39,.07-.41,0-1.33-.1-1.7,0,0,0,0,0,0,.18-.11,.35-.2,.51-.28,.33,.03,.64,.1,.86,.22s.42,.35,.62,.62c.01,.18,.02,.38,.02,.59h0c-.36,.11-1.19,.51-1.51,.78Zm2.64-5.09c-.19-.11-.27-.74-.21-1.59,.95-1.58,2.33-2.48,2.49-2.39s.08,1.73-.79,3.34c-.7,.49-1.3,.74-1.49,.63Zm.81-5.14c.49-.86,1.2-1.66,1.89-2.26l.37,.21c.54,.31,.49,.55,.04,.88-.79,.56-1.92,1.51-2.86,2.46,.15-.45,.33-.89,.56-1.29Zm2.64-2.85c.39-.27,.74-.45,1.01-.52l-.14,.25c-.13,.22-.23,.31-.39,.3-.13,0-.3-.01-.48-.02Zm.42,2.12c.05-.56,.24-.72,.78-.41l.36,.21c-.17,.9-.5,1.91-.99,2.77-.23,.4-.52,.78-.83,1.14,.35-1.29,.59-2.75,.68-3.71Zm1.01-1.55c-.09-.14-.06-.27,.06-.49l.14-.24c.07,.27,.09,.66,.06,1.12-.09-.15-.19-.29-.26-.4Zm-.27-4.99c.64-.21,1.39-.45,1.85-.76,.11-.07,.37,.11,.38,.25,0,.07,.03,.13,.05,.19l-1.39,2.43s0-.01-.01-.02c-.19-.36-.71-1.17-1.11-1.58-.19-.19-.07-.4,.23-.5Zm-7.34,4.07c-.08-2.35,3.75-4.44,6.85-2.04,.52,.4,.54,.65,.05,.86-.72,.31-1.51,.75-2.1,1.18-.25,.18-.45,.2-.46-.17-.06-1.1-1.29-1.46-1.95-.87-.78,.71-.37,1.84,.44,2,.54,.1,.59,.3,.32,.55-1.24,1.13-3.1,.08-3.15-1.51Zm1.51,6.12c-.1,.02-.2-.04-.29-.18-.07-.11-.15-.2-.23-.29,.14-.06,.26-.12,.34-.17,.23-.14,.32-.15,.25,.2-.03,.15-.05,.29-.07,.44Zm-1.96-.1c.33-.11,.64,.19,.33,.47-.58,.52-.73,1.05-.58,1.35,.13,.26,.54,.38,1.19,.43,.09,.01,.18,.13,.17,.29-.01,.21-.02,.45-.01,.68-.39,.15-.79,.34-1.2,.56-1.59-.93-1.45-3.24,.11-3.78Zm-2.61,7.99c.39-.68,.99-1.29,1.63-1.79,.16,.96-.23,2.2-.89,3.49-.31,.61-.85,1.59-1.57,2.69-.13-1.1-.02-2.91,.83-4.39Zm-1.69,11.18c-.52,.9-1.66,1.21-2.56,.7s-1.21-1.66-.7-2.56,1.66-1.21,2.56-.69,1.21,1.66,.69,2.56Zm2.18-6.04c.59-1.17,1.16-2.13,1.52-2.71,.77-1.22,1.64-2.18,2.55-2.53-.11,.8-.33,1.63-.72,2.31-.84,1.48-2.34,2.48-3.35,2.93Zm5.72-7.21c-.01-.47-.06-.91-.12-1.33,.2-.11,.41-.24,.58-.35,.13-.08,.28-.07,.33,0,.37,.53,.69,.83,.98,.81,.33-.03,.71-.43,.87-1.19,.08-.41,.49-.3,.57,.04,.33,1.63-1.6,2.92-3.2,2.02Zm2.13-3.65c.12-.09,.23-.18,.34-.28,.26-.24,.3-.17,.3,.11,0,.1,0,.23,.02,.38-.12-.02-.24-.05-.37-.05-.17,0-.26-.06-.3-.15Zm6.04-1.8c-1.39,.76-3.24-.31-2.9-1.96,.08-.37,.27-.42,.64,0,.55,.62,1.73,.4,1.95-.63,.18-.87-.75-1.74-1.74-1.24-.32,.17-.41,0-.38-.32,.07-.73,.05-1.64-.04-2.41-.07-.52,.15-.63,.76-.39,3.64,1.46,3.77,5.82,1.71,6.94Z"/><path class="cls-32" d="M231.36,129.22c0,39.87,32.44,72.31,72.31,72.31s72.32-32.44,72.32-72.31-32.44-72.31-72.32-72.31-72.31,32.43-72.31,72.31Zm3.11,0c0-38.17,31.05-69.21,69.2-69.21s69.21,31.05,69.21,69.21-31.05,69.21-69.21,69.21-69.2-31.05-69.2-69.21Z"/><path class="cls-5" d="M223.92,129.22c0,43.98,35.78,79.75,79.76,79.75s79.76-35.78,79.76-79.75-35.78-79.76-79.76-79.76-79.76,35.77-79.76,79.76Zm.62,0c0-43.64,35.51-79.14,79.14-79.14s79.14,35.51,79.14,79.14-35.5,79.14-79.14,79.14-79.14-35.5-79.14-79.14Z"/><g><path class="cls-3" d="M272.66,87.03l-.3-.51c.67-.6,.56-.79,.03-1.2-.43-.32-1.28-.93-3.17-2.31,.1,1.49,.25,2.85,.39,3.8,.12,.86,.28,.93,1.17,.64l.31,.51-2.89,1.68-.3-.52c.6-.47,.86-.95,.9-1.7,0-.89-.04-2.68-.2-4.83-1.34-.97-2.54-1.84-3.77-2.71-.91-.64-1.31-.73-2.2-.37l-.29-.51,3.35-1.94,.3,.52c-.59,.56-.48,.73-.09,1.02,.64,.51,1.56,1.17,2.69,1.97-.04-1.04-.14-2.12-.28-3.04-.12-.77-.26-.91-1.13-.64l-.3-.52,2.81-1.63,.3,.51c-.74,.6-.92,.94-.93,2.1-.02,.79,.04,1.94,.12,3.6,1.54,1.08,2.92,2.07,4.35,3.06,1.13,.77,1.52,.82,2.41,.47l.3,.51-3.57,2.06Z"/><path class="cls-12" d="M276.63,84.74l-.3-.52c.86-.63,.9-.8,.1-2.18l-3.64-6.31c-.79-1.38-.97-1.43-1.95-1l-.29-.52,3.42-1.97,.3,.52c-.86,.62-.89,.79-.09,2.16l3.64,6.32c.79,1.38,.96,1.43,1.93,1l.3,.52-3.41,1.98Z"/></g><g><g><path class="cls-2" d="M299.27,75.62v-.59c.88-.19,.88-.42,.63-1.03-.22-.49-.64-1.43-1.59-3.59-.66,1.35-1.21,2.6-1.57,3.47-.32,.81-.22,.95,.7,1.15v.59h-3.34v-.59c.76-.11,1.23-.39,1.64-1.03,.44-.77,1.3-2.33,2.24-4.28-.68-1.51-1.27-2.85-1.91-4.22-.47-1.01-.77-1.29-1.72-1.42v-.6h3.88v.6c-.8,.18-.78,.39-.59,.84,.3,.77,.77,1.79,1.35,3.05,.48-.91,.93-1.91,1.28-2.77,.29-.73,.24-.92-.66-1.12v-.6h3.25v.6c-.93,.15-1.26,.35-1.86,1.34-.41,.67-.93,1.71-1.7,3.18,.79,1.7,1.5,3.25,2.24,4.82,.59,1.23,.91,1.48,1.85,1.61v.59h-4.12Z"/><path class="cls-4" d="M303.86,75.62v-.59c1.05-.11,1.18-.25,1.18-1.84v-7.29c0-1.59-.13-1.72-1.18-1.83v-.6h3.94v.6c-1.06,.11-1.17,.24-1.17,1.83v7.29c0,1.59,.11,1.72,1.17,1.84v.59h-3.94Z"/><path class="cls-28" d="M308.85,75.62v-.59c1.06-.11,1.19-.25,1.19-1.84v-7.29c0-1.59-.13-1.72-1.19-1.83v-.6h3.94v.6c-1.06,.11-1.17,.24-1.17,1.83v7.29c0,1.59,.11,1.72,1.17,1.84v.59h-3.94Z"/></g><g><path class="cls-7" d="M301.46,194.04c.91-.13,1.13-.33,1.68-2.09,.41-1.37,1.74-5.8,2.8-9.65h.59c.93,3.42,2.16,7.76,2.82,9.99,.41,1.42,.63,1.64,1.47,1.76v.62h-3.83v-.62c.98-.17,1-.35,.8-1.18-.39-1.44-1.43-5.16-2.09-7.44h-.04c-.73,2.58-1.48,5.28-1.88,6.99-.29,1.22-.27,1.45,.86,1.63v.62h-3.17v-.62Z"/><path class="cls-14" d="M300.8,182.51v.59c-1.06,.11-1.19,.24-1.19,1.83v7.3c0,1.58,.13,1.72,1.19,1.83v.6h-3.94v-.6c1.05-.11,1.16-.25,1.16-1.83v-7.3c0-1.59-.11-1.72-1.16-1.83v-.59h3.94Z"/></g></g><path class="cls-20" d="M331.1,186.79c.72-.57,.8-.85,.4-2.64-.32-1.39-1.39-5.9-2.4-9.77l.51-.29c2.52,2.49,5.74,5.64,7.43,7.24,1.07,1.03,1.36,1.11,2.15,.79l.31,.54-3.32,1.91-.31-.53c.77-.64,.69-.81,.1-1.42-1.05-1.05-3.82-3.76-5.53-5.4l-.03,.03c.66,2.59,1.35,5.3,1.87,6.99,.36,1.2,.49,1.37,1.56,.97l.31,.54-2.75,1.58-.31-.54Z"/><g><path class="cls-27" d="M350.85,150.53l.52,.3c-.43,.97-.38,1.14,1,1.94l6.32,3.65c1.38,.8,1.55,.75,2.17-.11l.52,.3-1.97,3.41-.52-.29c.44-.97,.37-1.13-1.01-1.93l-6.31-3.65c-1.38-.79-1.55-.76-2.17,.1l-.52-.3,1.97-3.41Z"/><path class="cls-18" d="M353.83,168.46c.34-.85,.27-1.14-.98-2.49-.98-1.04-4.15-4.41-6.96-7.25l.29-.51c3.43,.9,7.8,2.01,10.05,2.56,1.44,.35,1.74,.27,2.26-.4l.54,.31-1.92,3.31-.53-.31c.34-.94,.19-1.04-.63-1.28-1.44-.39-5.18-1.34-7.49-1.92l-.03,.04c1.87,1.92,3.83,3.92,5.12,5.13,.9,.85,1.11,.94,1.83,.06l.53,.31-1.58,2.75-.53-.31Z"/></g><g><path class="cls-15" d="M360.22,101.1l-.52,.3c-.63-.86-.8-.9-2.18-.1l-6.32,3.65c-1.38,.79-1.42,.96-1,1.94l-.52,.3-1.97-3.42,.52-.3c.63,.86,.8,.9,2.17,.1l6.32-3.64c1.38-.8,1.44-.96,1.01-1.93l.51-.3,1.97,3.41Z"/><path class="cls-33" d="M357.72,96.77l-.51,.3c-.63-.86-.81-.9-2.18-.11l-6.32,3.65c-1.37,.79-1.42,.96-1,1.94l-.52,.3-1.97-3.41,.52-.3c.63,.86,.79,.89,2.17,.1l6.32-3.65c1.38-.79,1.43-.95,1-1.92l.52-.29,1.97,3.41Z"/></g><path class="cls-23" d="M339.39,75.12l-.3,.52c-.97-.44-1.15-.39-1.94,1l-3.65,6.31c-.79,1.38-.75,1.55,.11,2.18l-.3,.51-3.41-1.97,.3-.51c.97,.43,1.13,.37,1.92-1.01l3.65-6.32c.79-1.38,.76-1.54-.1-2.17l.3-.52,3.41,1.97Z"/><g><g><path class="cls-6" d="M369.25,136.2h-.6c-.11-1.06-.25-1.18-1.83-1.18h-7.29c-1.59,0-1.72,.12-1.83,1.18h-.6v-3.94h.6c.11,1.05,.24,1.17,1.83,1.17h7.29c1.58,0,1.72-.11,1.83-1.17h.6v3.94Z"/><path class="cls-25" d="M369.25,131.2h-.6c-.11-1.05-.25-1.18-1.83-1.18h-7.29c-1.59,0-1.72,.13-1.83,1.18h-.6v-3.94h.6c.11,1.06,.24,1.17,1.83,1.17h7.29c1.58,0,1.72-.11,1.83-1.17h.6v3.94Z"/><path class="cls-26" d="M369.25,126.2h-.6c-.11-1.06-.25-1.18-1.83-1.18h-7.29c-1.59,0-1.72,.12-1.83,1.18h-.6v-3.94h.6c.11,1.06,.24,1.17,1.83,1.17h7.29c1.58,0,1.72-.11,1.83-1.17h.6v3.94Z"/></g><g><path class="cls-13" d="M250.55,135.89h-.6c-.12-1.06-.25-1.18-1.83-1.18h-7.29c-1.59,0-1.72,.12-1.83,1.18h-.6v-3.94h.6c.11,1.06,.24,1.17,1.83,1.17h7.29c1.59,0,1.72-.11,1.83-1.17h.6v3.94Z"/><path class="cls-9" d="M250.55,126.15h-.6c-.19-.88-.41-.88-1.03-.63-.48,.21-1.44,.64-3.59,1.6,1.34,.66,2.6,1.2,3.48,1.56,.8,.33,.95,.22,1.14-.7h.6v3.34h-.6c-.12-.75-.39-1.22-1.03-1.63-.77-.44-2.33-1.31-4.28-2.23-1.51,.67-2.86,1.27-4.22,1.91-1.01,.46-1.29,.76-1.42,1.71h-.6v-3.88h.6c.19,.8,.39,.79,.84,.59,.77-.3,1.8-.78,3.05-1.34-.91-.49-1.91-.94-2.76-1.28-.73-.28-.92-.22-1.12,.66h-.6v-3.26h.6c.15,.94,.36,1.27,1.35,1.85,.67,.41,1.7,.94,3.18,1.71,1.7-.8,3.25-1.5,4.82-2.24,1.24-.59,1.48-.91,1.61-1.86h.6v4.12Z"/></g></g><path class="cls-24" d="M306.18,33.94c0,.73,.59,1.31,1.32,1.31v2.13c1.43,1.34,2.36,3.51,2.36,5.94s-.93,4.6-2.36,5.93v2.14c-.73,0-1.32,.59-1.32,1.31h-4.21c0-.72-.59-1.31-1.31-1.31v-2.14c-1.44-1.33-2.37-3.5-2.37-5.93s.93-4.59,2.36-5.94v-2.13c.73,0,1.32-.58,1.32-1.31h4.21Z"/></svg>