<?xml version="1.0" encoding="UTF-8"?><svg id="Layer_1" xmlns="http://www.w3.org/2000/svg" xmlns:xlink="http://www.w3.org/1999/xlink" viewBox="0 0 409.76 377.05"><defs><style>.cls-1{fill:url(#linear-gradient-2);}.cls-2{fill:url(#linear-gradient-17);}.cls-3{fill:url(#linear-gradient-15);}.cls-4{fill:url(#linear-gradient-18);}.cls-5{fill:none;stroke:url(#linear-gradient-14);stroke-miterlimit:10;stroke-width:3px;}.cls-6{fill:url(#linear-gradient-28);}.cls-7{fill:url(#linear-gradient-20);}.cls-8{fill:url(#linear-gradient-6);}.cls-9{fill:url(#linear-gradient-32);}.cls-10{fill:url(#linear-gradient-11);}.cls-11{fill:url(#linear-gradient-10);}.cls-12{fill:url(#linear-gradient-16);}.cls-13{fill:url(#linear-gradient-31);}.cls-14{fill:url(#linear-gradient-21);}.cls-15{fill:url(#linear-gradient-25);}.cls-16{fill:url(#linear-gradient-5);}.cls-17{fill:url(#linear-gradient-7);}.cls-18{fill:url(#linear-gradient-24);}.cls-19{fill:url(#linear-gradient-9);}.cls-20{fill:url(#linear-gradient-22);}.cls-21{fill:url(#linear-gradient-3);}.cls-22{fill:url(#linear-gradient);}.cls-23{fill:url(#linear-gradient-27);}.cls-24{fill:url(#linear-gradient-33);}.cls-25{fill:url(#linear-gradient-29);}.cls-26{fill:url(#linear-gradient-30);}.cls-27{fill:url(#linear-gradient-23);}.cls-28{fill:url(#linear-gradient-19);}.cls-29{fill:url(#linear-gradient-4);}.cls-30{fill:url(#linear-gradient-8);}.cls-31{fill:url(#linear-gradient-12);}.cls-32{fill:url(#linear-gradient-13);}.cls-33{fill:url(#linear-gradient-26);}</style><linearGradient id="linear-gradient" x1="250.49" y1="163.92" x2="263.35" y2="163.92" gradientUnits="userSpaceOnUse"><stop offset="0" stop-color="#b99d22"/><stop offset="1" stop-color="#635412"/></linearGradient><linearGradient id="linear-gradient-2" x1="248.53" y1="156.94" x2="260.73" y2="156.94" xlink:href="#linear-gradient"/><linearGradient id="linear-gradient-3" x1="246.4" y1="153.25" x2="258.6" y2="153.25" xlink:href="#linear-gradient"/><linearGradient id="linear-gradient-4" x1="244.27" y1="149.57" x2="256.48" y2="149.57" xlink:href="#linear-gradient"/><linearGradient id="linear-gradient-5" x1="273.08" y1="182.28" x2="282.99" y2="182.28" xlink:href="#linear-gradient"/><linearGradient id="linear-gradient-6" x1="269.68" y1="178.3" x2="278.66" y2="178.3" xlink:href="#linear-gradient"/><linearGradient id="linear-gradient-7" x1="266" y1="176.18" x2="274.98" y2="176.18" xlink:href="#linear-gradient"/><linearGradient id="linear-gradient-8" x1="243.87" y1="101.86" x2="258.91" y2="101.86" xlink:href="#linear-gradient"/><linearGradient id="linear-gradient-9" x1="283.51" y1="20.16" x2="323.83" y2="20.16" xlink:href="#linear-gradient"/><linearGradient id="linear-gradient-10" x1="263.35" y1="50.89" x2="344.79" y2="50.89" xlink:href="#linear-gradient"/><linearGradient id="linear-gradient-11" x1="300.07" y1="132.48" x2="364.17" y2="132.48" xlink:href="#linear-gradient"/><linearGradient id="linear-gradient-12" x1="294.08" y1="110.9" x2="313.19" y2="110.9" xlink:href="#linear-gradient"/><linearGradient id="linear-gradient-13" x1="231.36" y1="129.22" x2="375.99" y2="129.22" xlink:href="#linear-gradient"/><linearGradient id="linear-gradient-14" x1="222.42" y1="129.22" x2="384.93" y2="129.22" xlink:href="#linear-gradient"/><linearGradient id="linear-gradient-15" x1="262.33" y1="82.17" x2="276.23" y2="82.17" xlink:href="#linear-gradient"/><linearGradient id="linear-gradient-16" x1="270.55" y1="78.49" x2="280.04" y2="78.49" xlink:href="#linear-gradient"/><linearGradient id="linear-gradient-17" x1="294.11" y1="69.54" x2="303.39" y2="69.54" xlink:href="#linear-gradient"/><linearGradient id="linear-gradient-18" x1="303.86" y1="69.54" x2="307.8" y2="69.54" xlink:href="#linear-gradient"/><linearGradient id="linear-gradient-19" x1="308.85" y1="69.54" x2="312.8" y2="69.54" xlink:href="#linear-gradient"/><linearGradient id="linear-gradient-20" x1="301.46" y1="188.48" x2="310.82" y2="188.48" xlink:href="#linear-gradient"/><linearGradient id="linear-gradient-21" x1="296.85" y1="188.58" x2="300.8" y2="188.58" xlink:href="#linear-gradient"/><linearGradient id="linear-gradient-22" x1="329.1" y1="180.71" x2="339.51" y2="180.71" xlink:href="#linear-gradient"/><linearGradient id="linear-gradient-23" x1="348.88" y1="155.27" x2="361.38" y2="155.27" xlink:href="#linear-gradient"/><linearGradient id="linear-gradient-24" x1="345.89" y1="163.49" x2="359.04" y2="163.49" xlink:href="#linear-gradient"/><linearGradient id="linear-gradient-25" x1="347.72" y1="102.44" x2="360.22" y2="102.44" xlink:href="#linear-gradient"/><linearGradient id="linear-gradient-26" x1="345.22" y1="98.11" x2="357.72" y2="98.11" xlink:href="#linear-gradient"/><linearGradient id="linear-gradient-27" x1="329.9" y1="79.4" x2="339.39" y2="79.4" xlink:href="#linear-gradient"/><linearGradient id="linear-gradient-28" x1="357.09" y1="134.23" x2="369.25" y2="134.23" xlink:href="#linear-gradient"/><linearGradient id="linear-gradient-29" x1="357.09" y1="129.23" x2="369.25" y2="129.23" xlink:href="#linear-gradient"/><linearGradient id="linear-gradient-30" x1="357.09" y1="124.23" x2="369.25" y2="124.23" xlink:href="#linear-gradient"/><linearGradient id="linear-gradient-31" x1="238.39" y1="133.92" x2="250.55" y2="133.92" xlink:href="#linear-gradient"/><linearGradient id="linear-gradient-32" x1="238.39" y1="126.67" x2="250.55" y2="126.67" xlink:href="#linear-gradient"/><linearGradient id="linear-gradient-33" x1="298.29" y1="43.32" x2="309.86" y2="43.32" xlink:href="#linear-gradient"/></defs><g><path class="cls-22" d="M251.02,161.61c.5,.61,.77,.66,2.53,.19,1.35-.39,5.76-1.62,9.54-2.76l.25,.43c-2.57,2.39-5.81,5.47-7.45,7.06-1.06,1.02-1.15,1.29-.9,1.96l-.53,.31-1.63-2.82,.54-.31c.57,.64,.74,.56,1.36,0,1.09-1,3.87-3.63,5.56-5.25l-.02-.03c-2.55,.75-5.2,1.54-6.86,2.11-1.18,.4-1.36,.52-1.04,1.45l-.53,.31-1.35-2.34,.53-.31Z"/><path class="cls-1" d="M260.73,155.34l-.52,.3c-.55-.72-.71-.75-2.09,.05l-6.31,3.64c-1.38,.79-1.44,.95-1.09,1.79l-.52,.3-1.68-2.9,.52-.3c.54,.72,.7,.74,2.08-.06l6.32-3.64c1.37-.8,1.45-.95,1.09-1.78l.51-.3,1.68,2.9Z"/><path class="cls-21" d="M258.6,151.67l-.52,.31c-.55-.73-.71-.75-2.09,.04l-6.32,3.65c-1.38,.8-1.44,.95-1.09,1.78l-.51,.3-1.68-2.9,.52-.3c.55,.73,.7,.74,2.08-.05l6.31-3.65c1.38-.79,1.45-.94,1.09-1.77l.52-.31,1.68,2.9Z"/><path class="cls-29" d="M256.48,147.99l-.52,.3c-.55-.73-.71-.75-2.09,.04l-6.32,3.65c-1.38,.79-1.44,.95-1.09,1.78l-.52,.3-1.68-2.9,.52-.31c.55,.73,.71,.75,2.08-.05l6.32-3.64c1.37-.8,1.44-.94,1.09-1.78l.52-.3,1.68,2.9Z"/></g><g><path class="cls-16" d="M273.39,184.16c.73,.27,.99,.18,2.28-1.1,.99-1.01,4.18-4.28,6.89-7.17l.43,.25c-1.02,3.36-2.29,7.64-2.92,9.85-.41,1.4-.36,1.7,.21,2.15l-.31,.54-2.82-1.63,.31-.54c.81,.27,.91,.12,1.18-.69,.43-1.41,1.53-5.07,2.18-7.33l-.03-.02c-1.83,1.93-3.73,3.93-4.88,5.26-.82,.93-.91,1.13-.18,1.77l-.31,.54-2.34-1.35,.31-.53Z"/><path class="cls-8" d="M278.66,173.87l-.3,.52c-.83-.35-.99-.29-1.78,1.09l-3.64,6.32c-.8,1.38-.77,1.54-.05,2.09l-.3,.52-2.91-1.68,.3-.52c.83,.35,.98,.29,1.78-1.09l3.64-6.31c.79-1.38,.78-1.54,.05-2.08l.3-.52,2.9,1.67Z"/><path class="cls-17" d="M274.98,171.75l-.3,.53c-.84-.35-.99-.29-1.79,1.08l-3.65,6.32c-.8,1.37-.77,1.54-.04,2.09l-.3,.52-2.9-1.68,.3-.52c.83,.35,.98,.28,1.78-1.09l3.64-6.32c.8-1.38,.78-1.54,.06-2.08l.3-.52,2.9,1.67Z"/></g><path class="cls-30" d="M256.85,104.22l-.52-.3c.28-.85,.09-.96-.57-1.06-.54-.05-1.57-.16-3.91-.42,.84,1.24,1.65,2.34,2.23,3.1,.53,.68,.72,.66,1.34-.04l.52,.3-1.67,2.89-.52-.29c.28-.71,.27-1.26-.08-1.93-.44-.77-1.37-2.3-2.59-4.08-1.65-.17-3.12-.32-4.62-.46-1.11-.1-1.5,.02-2.09,.78l-.51-.3,1.93-3.35,.52,.3c-.23,.78-.05,.88,.43,.93,.81,.12,1.94,.24,3.31,.35-.55-.88-1.18-1.76-1.75-2.48-.49-.62-.68-.66-1.3,.01l-.52-.3,1.62-2.82,.52,.3c-.34,.88-.32,1.26,.24,2.27,.38,.7,1.01,1.66,1.9,3.06,1.87,.17,3.57,.33,5.3,.48,1.36,.1,1.73-.05,2.32-.8l.51,.3-2.06,3.57Z"/><path class="cls-19" d="M283.51,20.16l10.63-1.83s-.58-3.68,3.24-3.82c-1.03,1.03-.91,2.98,.38,4.07,1.28,1.09,3.72,.79,4.41,.09,.69-.7,1-3.13-.09-4.42-1.09-1.3-3.05-1.4-4.07-.37,.14-3.83,3.83-3.25,3.83-3.25l1.82-10.63,1.83,10.63s3.69-.58,3.82,3.25c-1.03-1.03-2.98-.92-4.07,.37-1.09,1.28-.78,3.72-.09,4.42,.69,.7,3.13,1,4.41-.09,1.29-1.09,1.41-3.04,.38-4.07,3.82,.14,3.24,3.82,3.24,3.82l10.63,1.83-10.63,1.83s.58,3.68-3.24,3.82c1.02-1.02,.91-2.98-.38-4.07-1.28-1.09-3.72-.78-4.41-.09-.69,.69-1,3.13,.09,4.41,1.09,1.3,3.04,1.41,4.07,.39-.14,3.82-3.82,3.24-3.82,3.24l-1.83,10.63-1.82-10.63s-3.69,.58-3.83-3.24c1.03,1.02,2.98,.91,4.07-.39,1.09-1.28,.78-3.72,.09-4.41-.7-.7-3.14-1.01-4.41,.09-1.3,1.09-1.41,3.05-.38,4.07-3.82-.14-3.24-3.82-3.24-3.82l-10.63-1.83Z"/><path class="cls-11" d="M304.08,57.62c-.4,0-.62-.32-.73-.85,0,0-.28-.94-.82-1.55-.96-1.09-2.81-4.94-7.07-4.94-7.7,0-15.64,7.26-25.43,6.63-3.51-.22-6.68-2.86-6.68-6.38s3.16-6.39,6.69-6.38c1.21,0,3.06,.26,5.5,1.62,3.83,2.14,5.57,2.3,5.57,2.3,.33,0,.6,.28,.6,.61s-.27,.62-.6,.62c0,0-1.35,.18-5.26,2.54-2.38,1.44-3.64,1.55-4.85,1.55-1.92,0-3.52-1.33-3.52-2.97,0-1.54,1.15-2.78,2.55-2.78,1.07,0,1.94,.73,1.94,1.63,0,0,.04,.87-.6,.87-.16,0-.28-.12-.28-.27,0-.19-.22-.66-.88-.66s-1.18,.41-1.18,1.21,1,1.47,2.21,1.47,2.87-.96,2.87-2.8-2.13-3.32-4.05-3.32-5.01,1.52-5.01,4.57,2.62,5.09,6.04,5.09,7.26-1.88,7.26-1.88c17.53-9.92,25.74-9.28,25.74-9.28,0,0,8.21-.63,25.73,9.28,0,0,3.83,1.88,7.25,1.88s6.04-2.03,6.04-5.09-3.09-4.57-5.01-4.57-4.05,1.48-4.05,3.32,1.65,2.8,2.87,2.8,2.21-.66,2.21-1.47-.51-1.21-1.18-1.21-.88,.47-.88,.66c0,.16-.12,.27-.28,.27-.64,0-.6-.87-.6-.87,0-.9,.86-1.63,1.93-1.63,1.4,0,2.54,1.25,2.54,2.78,0,1.64-1.61,2.97-3.52,2.97-1.21,0-2.46-.11-4.86-1.55-3.9-2.36-5.25-2.54-5.25-2.54-.33,0-.61-.29-.61-.62s.28-.61,.61-.61c0,0,1.74-.15,5.57-2.3,2.44-1.35,4.29-1.61,5.49-1.62,3.52-.02,6.69,2.85,6.69,6.38s-3.16,6.16-6.68,6.38c-9.8,.63-17.73-6.63-25.42-6.63-4.27,0-6.12,3.85-7.08,4.94-.54,.61-.81,1.55-.81,1.55-.12,.52-.33,.85-.72,.85Z"/><path class="cls-10" d="M363.36,132.12h-31.76c-.26,0-.39-.04-.47-.19-.2-.38-.57-1.08-.69-1.29-.17-.31-.45-.24-.45,.09v.31c-1.08,.82-2.2,.73-3.04-.17-.18-.19-.17-.48,.05-.51,.5-.07,.77-.66,.42-1.11-.32-.41-1.04-.31-1.19,.31-.06,.27-.48,.34-.63,.07-.44-.75-1.01-1.23-1.96-1.5-.15-.04-.17-.09-.13-.16,.21-.27-.01-.73-.38-.73-.2,0-.35,.12-.42,.27-.28-.17-.62-.31-1.03-.37-1.09-.17-2.41,.21-3.18,1.25-.22,.29-.26,.29-.55-.03-.21-.22-.34-.34-.55-.49-.36-.27-.61-.13-.43,.48,.32,1.08,.06,1.84-.57,2.37-.44-.14-.92-.23-1.42-.23-1.01,0-2.24,.48-3.12,1.15-.07,.05-.12,.09-.17,.11-.05,0-.1,0-.15,0-.03-.02-.05-.06-.07-.13-.34-.91-1.21-1.55-2.23-1.55-.88,0-1.64,.48-2.06,1.19-.5-1.41-1.85-2.42-3.45-2.42-2.02,0-3.66,1.62-3.66,3.61s1.64,3.61,3.66,3.61c1.6,0,2.94-1.01,3.45-2.41,.41,.71,1.18,1.19,2.06,1.19,1.02,0,1.9-.64,2.23-1.55,.02-.06,.05-.1,.08-.13,.05,0,.1,0,.15,0,.05,.02,.1,.06,.17,.11,.88,.67,2.11,1.15,3.12,1.15,.5,0,.98-.09,1.42-.23,.63,.53,.89,1.3,.57,2.37-.19,.6,.07,.74,.43,.47,.2-.16,.34-.27,.55-.49,.29-.32,.33-.32,.55-.02,.77,1.03,2.09,1.4,3.18,1.24,.41-.06,.74-.2,1.02-.37,.07,.15,.21,.27,.42,.27,.37,0,.59-.45,.38-.73-.05-.06-.02-.12,.13-.16,.95-.26,1.52-.74,1.96-1.5,.16-.26,.57-.2,.63,.08,.15,.62,.87,.71,1.19,.3,.35-.44,.07-1.04-.42-1.11-.23-.03-.23-.31-.05-.51,.83-.9,1.96-.99,3.04-.17v.3c0,.33,.28,.41,.45,.09,.11-.2,.49-.91,.69-1.29,.08-.14,.21-.19,.47-.19h31.76c.56,0,.82-.18,.82-.36s-.25-.36-.82-.36Zm-59.63,.95c-.33,0-.6-.26-.6-.59s.27-.59,.6-.59,.6,.27,.6,.59-.27,.59-.6,.59Zm18.39-4.71c-.84,.51-1.06,1.49-.84,2.09,.07,.18,.04,.28-.28,.26-.52-.05-.94-.33-1.26-.62-.2-.18-.33-.09-.27,.16,.07,.29,.54,.68,.75,.8,.13,.07,.16,.11-.03,.17-.36,.12-.66,.29-.95,.46,0-.06-.02-.11-.03-.17-.03-.03-.06-.08-.08-.15-.89-2.29,1.44-3.87,2.98-2.99Zm-2.74,4.3s0-.09,0-.13c0-.07-.02-.14-.03-.21,.34-.33,1.5-.85,2.55-.85,1.29,0,2.7,.66,2.7,1.01s-1.41,1.01-2.7,1.01c-1.02,0-2.14-.5-2.52-.83Zm-1.48-1.29s.04,.09,.06,.14c-.12-.09-.25-.17-.39-.25,.14-.1,.23-.06,.32,.11Zm-1.08,1.77c-.29-.19-.6-.36-.81-.43-.25-.09-.32-.15-.32-.23,0-.09,.07-.15,.32-.23,.21-.07,.52-.25,.81-.44,.48,.26,.82,.55,.82,.66s-.34,.4-.82,.66Zm-1.84-1.87c.12,0,.25,.02,.37,.03-.6,.21-1.3,.34-2.08,.41,.48-.24,1.08-.44,1.71-.44Zm-5.05,.47c-.41-.02-.84-.04-1.29-.08,.17-.12,.36-.21,.59-.21,.27,0,.52,.11,.7,.29Zm-1.28,1.56c.44-.03,.87-.06,1.27-.08-.18,.17-.42,.28-.69,.28-.22,0-.41-.08-.58-.2Zm6.33,.39c-.63,0-1.23-.2-1.71-.44,.78,.06,1.49,.19,2.08,.41-.12,.02-.25,.03-.37,.03Zm2.91-.1c-.09,.17-.18,.2-.32,.11,.13-.08,.26-.16,.38-.25-.02,.05-.04,.09-.06,.14Zm1.24,.02c.06-.17,.12-.23,.22-.21,0-.01,0-.03,0-.04,.25,.15,.52,.29,.84,.39,.19,.06,.16,.1,.03,.17-.21,.11-.68,.51-.75,.79-.06,.25,.07,.34,.27,.16,.32-.29,.74-.58,1.26-.62,.32-.03,.35,.08,.28,.26-.23,.6,0,1.58,.83,2.09-1.54,.89-3.87-.69-2.98-2.98Zm3.77,2.59c-.15-.08-.29-.16-.42-.27,0,0,0,0,0,.01,.02,.03,.02,.07,.03,.11-.02,0-.04,0-.05-.02-.74-.45-.73-1.62,.14-1.9,.2-.06,.28,.01,.18,.3-.14,.43,.28,.93,.83,.75,.46-.15,.62-.83,.12-1.16-.17-.11-.11-.19,.05-.27,.36-.17,.79-.42,1.13-.67,.23-.18,.34-.1,.39,.25,.26,1.85-1.26,3.04-2.38,2.86Zm2.38-4.59c-.05,.35-.16,.43-.39,.26-.34-.26-.77-.51-1.13-.68-.16-.07-.22-.16-.05-.26,.51-.33,.34-1.01-.12-1.16-.55-.18-.97,.32-.83,.75,.1,.29,.02,.36-.18,.3-.87-.28-.88-1.45-.14-1.9,1.09-.67,3.12,.57,2.83,2.69Zm.51,1.36c-.06-.12-.12-.22-.16-.29-.09-.14-.09-.15-.09-.2,0-.06,0-.07,.09-.21,.04-.07,.1-.18,.16-.29,.55,.2,.89,.41,.89,.5s-.35,.29-.89,.5Zm3.61-.06s-.04-.03-.05-.05c.4-.14,.6-.04,.62,.46-.17-.16-.37-.31-.56-.41Zm-.05-.84s.03-.03,.05-.04c.19-.1,.39-.25,.56-.41-.02,.49-.22,.59-.61,.46Z"/><path class="cls-31" d="M311.86,106.27c-.12,.09-.22,.04-.3-.23-.48-1.74-1.36-2.78-2.74-3.58-.48-.29-.36-1.04,.15-1.16,1.13-.27,1.3-1.6,.55-2.18-.81-.63-1.91-.13-2.03,.78-.05,.42-.57,.43-.93,.1-1.68-1.56-1.82-3.68-.22-5.68,.33-.41,.18-.82-.36-.51-.59,.33-1.19,1.03-1.54,1.68-.12,.21-.33,.2-.33-.15v-9.41c0-.58-.25-.9-.47-.9s-.48,.32-.48,.9v9.41c0,.35-.22,.36-.34,.15-.35-.65-.95-1.35-1.55-1.68-.54-.31-.69,.11-.36,.51,1.6,2,1.45,4.12-.22,5.68-.36,.33-.88,.32-.93-.1-.12-.91-1.22-1.41-2.03-.78-.75,.58-.57,1.91,.56,2.18,.5,.12,.62,.87,.14,1.16-1.37,.8-2.26,1.84-2.74,3.58-.07,.27-.17,.32-.29,.23-.5-.39-1.34,.02-1.34,.7s.69,1.04,1.23,.79c.2-.09,.33,.02,.47,.39,.76,2.09,2.9,2.67,4.14,2.2,.33-.12,.52-.07,.47,.51-.06,.64-.32,1.19-.64,1.67-.71,.18-1.27,.83-1.43,1.81-.17,1.06,.21,2.33,1.25,3.08,.29,.21,.29,.25-.03,.53-.22,.2-.34,.33-.49,.53-.27,.34-.13,.59,.48,.41,.41-.12,.77-.15,1.1-.12-.36,.94-.59,1.99-.59,3.11,0,1.85,.88,4.1,2.11,5.71,.29,.38,.41,.56-.03,.72-1.66,.62-2.83,2.22-2.83,4.09,0,2.42,1.95,4.38,4.37,4.38s4.37-1.96,4.37-4.38c0-1.87-1.17-3.47-2.83-4.09-.43-.16-.32-.34-.03-.72,1.23-1.61,2.11-3.86,2.11-5.71,0-1.12-.24-2.16-.59-3.11,.33-.03,.69,0,1.1,.12,.6,.18,.74-.07,.47-.41-.16-.2-.27-.33-.49-.53-.32-.28-.32-.31-.02-.53,1.03-.75,1.4-2.02,1.24-3.08-.15-.99-.71-1.64-1.43-1.81-.32-.48-.59-1.03-.65-1.67-.05-.58,.14-.64,.47-.51,1.25,.47,3.39-.11,4.14-2.2,.14-.36,.27-.48,.47-.39,.54,.26,1.22-.11,1.22-.79s-.83-1.09-1.33-.7Zm-7.73-6.81c.07-.12,.38-.14,.45-.03,.25,.49,.77,1.08,1.23,1.58,.21,.24,.21,.48-.04,.55-.55,.16-1.4,.6-1.76,.82,0,0,0,0-.02,.01v-2.79s.09-.07,.13-.14Zm-.26,20.35c-.09,.24-.15,.31-.23,.31-.09,0-.15-.07-.23-.31-.14-.39-.66-1.15-.93-1.43,0,0,0,0,0,0,.1-.18,.2-.35,.3-.5,.31-.13,.61-.23,.86-.23s.54,.1,.84,.23c.1,.15,.21,.32,.31,.51h0c-.26,.27-.78,1.03-.92,1.43Zm-.24-5.73c-.22,0-.6-.51-.97-1.27,.04-1.85,.79-3.31,.97-3.31s.93,1.46,.97,3.29c-.37,.77-.76,1.29-.98,1.29Zm-1.85-4.87c0-1,.22-2.03,.52-2.9h.42c.63,0,.7,.23,.47,.74-.41,.88-.92,2.27-1.26,3.56-.09-.46-.15-.94-.15-1.4Zm.88-3.79c.21-.43,.42-.76,.62-.96v.28c0,.25-.04,.38-.19,.45-.12,.06-.27,.14-.43,.22Zm1.42,1.63c-.23-.51-.15-.74,.48-.74h.42c.3,.87,.52,1.9,.52,2.9,0,.46-.06,.94-.15,1.4-.34-1.29-.85-2.67-1.26-3.56Zm.11-1.85c-.14-.08-.19-.2-.19-.45v-.28c.2,.2,.41,.53,.61,.95-.16-.08-.31-.16-.42-.22Zm-2.72-4.2c.46-.5,.98-1.09,1.23-1.58,.06-.12,.38-.09,.45,.03,.04,.06,.09,.1,.13,.14v2.8s-.01,0-.02-.02c-.34-.22-1.2-.66-1.75-.82-.26-.07-.26-.31-.04-.55Zm-4.35,7.18c-1.23-2,1.05-5.71,4.93-5.18,.65,.09,.79,.3,.47,.72-.47,.62-.93,1.4-1.24,2.07-.13,.28-.29,.4-.48,.09-.6-.93-1.84-.63-2.12,.21-.33,1,.59,1.78,1.37,1.51,.52-.18,.66-.04,.55,.32-.51,1.6-2.65,1.61-3.48,.26Zm4.35,4.57c-.08,.07-.19,.06-.34-.01-.12-.06-.23-.1-.34-.14,.09-.12,.16-.23,.21-.32,.13-.24,.2-.29,.31,.05,.05,.15,.1,.28,.16,.42Zm-1.75,.89c.24-.26,.65-.15,.52,.24-.24,.74-.11,1.28,.17,1.46,.24,.16,.66,.06,1.25-.21,.08-.03,.22,.03,.29,.16,.09,.19,.21,.4,.33,.6-.26,.33-.52,.69-.77,1.08-1.84-.02-2.87-2.09-1.78-3.34Zm1.7,8.23c0-.78,.22-1.61,.52-2.36,.61,.76,.9,2.02,.96,3.47,.03,.68,.05,1.8-.02,3.11-.66-.89-1.46-2.52-1.46-4.22Zm4.09,10.54c0,1.04-.84,1.87-1.87,1.87s-1.87-.84-1.87-1.87,.84-1.87,1.87-1.87,1.87,.85,1.87,1.87Zm-1.11-6.32c-.07-1.31-.05-2.43-.03-3.1,.06-1.44,.34-2.71,.95-3.47,.3,.75,.52,1.58,.52,2.36,0,1.7-.79,3.32-1.45,4.21Zm1.38-9.1c-.25-.4-.5-.76-.77-1.09,.12-.2,.24-.41,.33-.59,.08-.14,.21-.2,.29-.16,.58,.28,1.01,.38,1.25,.21,.27-.19,.41-.73,.16-1.46-.13-.39,.28-.5,.51-.24,1.1,1.25,.06,3.33-1.78,3.34Zm.03-4.23c.05-.14,.11-.27,.16-.42,.11-.34,.18-.29,.32-.05,.05,.09,.12,.2,.21,.32-.12,.04-.23,.08-.35,.14-.15,.08-.26,.08-.33,.01Zm4.35-4.56c-.83,1.35-2.97,1.34-3.49-.26-.12-.36,.03-.5,.55-.32,.78,.26,1.7-.51,1.37-1.51-.27-.84-1.52-1.14-2.12-.21-.2,.31-.36,.2-.49-.09-.3-.66-.77-1.45-1.23-2.07-.32-.42-.18-.63,.47-.72,3.88-.54,6.17,3.18,4.93,5.18Z"/><path class="cls-32" d="M231.36,129.22c0,39.87,32.44,72.31,72.31,72.31s72.32-32.44,72.32-72.31-32.44-72.31-72.32-72.31-72.31,32.43-72.31,72.31Zm3.11,0c0-38.17,31.05-69.21,69.2-69.21s69.21,31.05,69.21,69.21-31.05,69.21-69.21,69.21-69.2-31.05-69.2-69.21Z"/><path class="cls-5" d="M223.92,129.22c0,43.98,35.78,79.75,79.76,79.75s79.76-35.78,79.76-79.75-35.78-79.76-79.76-79.76-79.76,35.77-79.76,79.76Zm.62,0c0-43.64,35.51-79.14,79.14-79.14s79.14,35.51,79.14,79.14-35.5,79.14-79.14,79.14-79.14-35.5-79.14-79.14Z"/><g><path class="cls-3" d="M272.66,87.03l-.3-.51c.67-.6,.56-.79,.03-1.2-.43-.32-1.28-.93-3.17-2.31,.1,1.49,.25,2.85,.39,3.8,.12,.86,.28,.93,1.17,.64l.31,.51-2.89,1.68-.3-.52c.6-.47,.86-.95,.9-1.7,0-.89-.04-2.68-.2-4.83-1.34-.97-2.54-1.84-3.77-2.71-.91-.64-1.31-.73-2.2-.37l-.29-.51,3.35-1.94,.3,.52c-.59,.56-.48,.73-.09,1.02,.64,.51,1.56,1.17,2.69,1.97-.04-1.04-.14-2.12-.28-3.04-.12-.77-.26-.91-1.13-.64l-.3-.52,2.81-1.63,.3,.51c-.74,.6-.92,.94-.93,2.1-.02,.79,.04,1.94,.12,3.6,1.54,1.08,2.92,2.07,4.35,3.06,1.13,.77,1.52,.82,2.41,.47l.3,.51-3.57,2.06Z"/><path class="cls-12" d="M276.63,84.74l-.3-.52c.86-.63,.9-.8,.1-2.18l-3.64-6.31c-.79-1.38-.97-1.43-1.95-1l-.29-.52,3.42-1.97,.3,.52c-.86,.62-.89,.79-.09,2.16l3.64,6.32c.79,1.38,.96,1.43,1.93,1l.3,.52-3.41,1.98Z"/></g><g><g><path class="cls-2" d="M299.27,75.62v-.59c.88-.19,.88-.42,.63-1.03-.22-.49-.64-1.43-1.59-3.59-.66,1.35-1.21,2.6-1.57,3.47-.32,.81-.22,.95,.7,1.15v.59h-3.34v-.59c.76-.11,1.23-.39,1.64-1.03,.44-.77,1.3-2.33,2.24-4.28-.68-1.51-1.27-2.85-1.91-4.22-.47-1.01-.77-1.29-1.72-1.42v-.6h3.88v.6c-.8,.18-.78,.39-.59,.84,.3,.77,.77,1.79,1.35,3.05,.48-.91,.93-1.91,1.28-2.77,.29-.73,.24-.92-.66-1.12v-.6h3.25v.6c-.93,.15-1.26,.35-1.86,1.34-.41,.67-.93,1.71-1.7,3.18,.79,1.7,1.5,3.25,2.24,4.82,.59,1.23,.91,1.48,1.85,1.61v.59h-4.12Z"/><path class="cls-4" d="M303.86,75.62v-.59c1.05-.11,1.18-.25,1.18-1.84v-7.29c0-1.59-.13-1.72-1.18-1.83v-.6h3.94v.6c-1.06,.11-1.17,.24-1.17,1.83v7.29c0,1.59,.11,1.72,1.17,1.84v.59h-3.94Z"/><path class="cls-28" d="M308.85,75.62v-.59c1.06-.11,1.19-.25,1.19-1.84v-7.29c0-1.59-.13-1.72-1.19-1.83v-.6h3.94v.6c-1.06,.11-1.17,.24-1.17,1.83v7.29c0,1.59,.11,1.72,1.17,1.84v.59h-3.94Z"/></g><g><path class="cls-7" d="M301.46,194.04c.91-.13,1.13-.33,1.68-2.09,.41-1.37,1.74-5.8,2.8-9.65h.59c.93,3.42,2.16,7.76,2.82,9.99,.41,1.42,.63,1.64,1.47,1.76v.62h-3.83v-.62c.98-.17,1-.35,.8-1.18-.39-1.44-1.43-5.16-2.09-7.44h-.04c-.73,2.58-1.48,5.28-1.88,6.99-.29,1.22-.27,1.45,.86,1.63v.62h-3.17v-.62Z"/><path class="cls-14" d="M300.8,182.51v.59c-1.06,.11-1.19,.24-1.19,1.83v7.3c0,1.58,.13,1.72,1.19,1.83v.6h-3.94v-.6c1.05-.11,1.16-.25,1.16-1.83v-7.3c0-1.59-.11-1.72-1.16-1.83v-.59h3.94Z"/></g></g><path class="cls-20" d="M331.1,186.79c.72-.57,.8-.85,.4-2.64-.32-1.39-1.39-5.9-2.4-9.77l.51-.29c2.52,2.49,5.74,5.64,7.43,7.24,1.07,1.03,1.36,1.11,2.15,.79l.31,.54-3.32,1.91-.31-.53c.77-.64,.69-.81,.1-1.42-1.05-1.05-3.82-3.76-5.53-5.4l-.03,.03c.66,2.59,1.35,5.3,1.87,6.99,.36,1.2,.49,1.37,1.56,.97l.31,.54-2.75,1.58-.31-.54Z"/><g><path class="cls-27" d="M350.85,150.53l.52,.3c-.43,.97-.38,1.14,1,1.94l6.32,3.65c1.38,.8,1.55,.75,2.17-.11l.52,.3-1.97,3.41-.52-.29c.44-.97,.37-1.13-1.01-1.93l-6.31-3.65c-1.38-.79-1.55-.76-2.17,.1l-.52-.3,1.97-3.41Z"/><path class="cls-18" d="M353.83,168.46c.34-.85,.27-1.14-.98-2.49-.98-1.04-4.15-4.41-6.96-7.25l.29-.51c3.43,.9,7.8,2.01,10.05,2.56,1.44,.35,1.74,.27,2.26-.4l.54,.31-1.92,3.31-.53-.31c.34-.94,.19-1.04-.63-1.28-1.44-.39-5.18-1.34-7.49-1.92l-.03,.04c1.87,1.92,3.83,3.92,5.12,5.13,.9,.85,1.11,.94,1.83,.06l.53,.31-1.58,2.75-.53-.31Z"/></g><g><path class="cls-15" d="M360.22,101.1l-.52,.3c-.63-.86-.8-.9-2.18-.1l-6.32,3.65c-1.38,.79-1.42,.96-1,1.94l-.52,.3-1.97-3.42,.52-.3c.63,.86,.8,.9,2.17,.1l6.32-3.64c1.38-.8,1.44-.96,1.01-1.93l.51-.3,1.97,3.41Z"/><path class="cls-33" d="M357.72,96.77l-.51,.3c-.63-.86-.81-.9-2.18-.11l-6.32,3.65c-1.37,.79-1.42,.96-1,1.94l-.52,.3-1.97-3.41,.52-.3c.63,.86,.79,.89,2.17,.1l6.32-3.65c1.38-.79,1.43-.95,1-1.92l.52-.29,1.97,3.41Z"/></g><path class="cls-23" d="M339.39,75.12l-.3,.52c-.97-.44-1.15-.39-1.94,1l-3.65,6.31c-.79,1.38-.75,1.55,.11,2.18l-.3,.51-3.41-1.97,.3-.51c.97,.43,1.13,.37,1.92-1.01l3.65-6.32c.79-1.38,.76-1.54-.1-2.17l.3-.52,3.41,1.97Z"/><g><g><path class="cls-6" d="M369.25,136.2h-.6c-.11-1.06-.25-1.18-1.83-1.18h-7.29c-1.59,0-1.72,.12-1.83,1.18h-.6v-3.94h.6c.11,1.05,.24,1.17,1.83,1.17h7.29c1.58,0,1.72-.11,1.83-1.17h.6v3.94Z"/><path class="cls-25" d="M369.25,131.2h-.6c-.11-1.05-.25-1.18-1.83-1.18h-7.29c-1.59,0-1.72,.13-1.83,1.18h-.6v-3.94h.6c.11,1.06,.24,1.17,1.83,1.17h7.29c1.58,0,1.72-.11,1.83-1.17h.6v3.94Z"/><path class="cls-26" d="M369.25,126.2h-.6c-.11-1.06-.25-1.18-1.83-1.18h-7.29c-1.59,0-1.72,.12-1.83,1.18h-.6v-3.94h.6c.11,1.06,.24,1.17,1.83,1.17h7.29c1.58,0,1.72-.11,1.83-1.17h.6v3.94Z"/></g><g><path class="cls-13" d="M250.55,135.89h-.6c-.12-1.06-.25-1.18-1.83-1.18h-7.29c-1.59,0-1.72,.12-1.83,1.18h-.6v-3.94h.6c.11,1.06,.24,1.17,1.83,1.17h7.29c1.59,0,1.72-.11,1.83-1.17h.6v3.94Z"/><path class="cls-9" d="M250.55,126.15h-.6c-.19-.88-.41-.88-1.03-.63-.48,.21-1.44,.64-3.59,1.6,1.34,.66,2.6,1.2,3.48,1.56,.8,.33,.95,.22,1.14-.7h.6v3.34h-.6c-.12-.75-.39-1.22-1.03-1.63-.77-.44-2.33-1.31-4.28-2.23-1.51,.67-2.86,1.27-4.22,1.91-1.01,.46-1.29,.76-1.42,1.71h-.6v-3.88h.6c.19,.8,.39,.79,.84,.59,.77-.3,1.8-.78,3.05-1.34-.91-.49-1.91-.94-2.76-1.28-.73-.28-.92-.22-1.12,.66h-.6v-3.26h.6c.15,.94,.36,1.27,1.35,1.85,.67,.41,1.7,.94,3.18,1.71,1.7-.8,3.25-1.5,4.82-2.24,1.24-.59,1.48-.91,1.61-1.86h.6v4.12Z"/></g></g><path class="cls-24" d="M306.18,33.94c0,.73,.59,1.31,1.32,1.31v2.13c1.43,1.34,2.36,3.51,2.36,5.94s-.93,4.6-2.36,5.93v2.14c-.73,0-1.32,.59-1.32,1.31h-4.21c0-.72-.59-1.31-1.31-1.31v-2.14c-1.44-1.33-2.37-3.5-2.37-5.93s.93-4.59,2.36-5.94v-2.13c.73,0,1.32-.58,1.32-1.31h4.21Z"/></svg>