<?xml version="1.0" encoding="UTF-8"?><svg id="Layer_1" xmlns="http://www.w3.org/2000/svg" xmlns:xlink="http://www.w3.org/1999/xlink" viewBox="0 0 409.76 377.05"><defs><style>.cls-1{fill:url(#linear-gradient-2);}.cls-2{fill:url(#linear-gradient-17);}.cls-3{fill:url(#linear-gradient-15);}.cls-4{fill:url(#linear-gradient-18);}.cls-5{fill:none;stroke:url(#linear-gradient-14);stroke-miterlimit:10;stroke-width:3px;}.cls-6{fill:url(#linear-gradient-28);}.cls-7{fill:url(#linear-gradient-20);}.cls-8{fill:url(#linear-gradient-6);}.cls-9{fill:url(#linear-gradient-32);}.cls-10{fill:url(#linear-gradient-11);}.cls-11{fill:url(#linear-gradient-10);}.cls-12{fill:url(#linear-gradient-16);}.cls-13{fill:url(#linear-gradient-31);}.cls-14{fill:url(#linear-gradient-21);}.cls-15{fill:url(#linear-gradient-25);}.cls-16{fill:url(#linear-gradient-5);}.cls-17{fill:url(#linear-gradient-7);}.cls-18{fill:url(#linear-gradient-24);}.cls-19{fill:url(#linear-gradient-9);}.cls-20{fill:url(#linear-gradient-22);}.cls-21{fill:url(#linear-gradient-3);}.cls-22{fill:url(#linear-gradient);}.cls-23{fill:url(#linear-gradient-27);}.cls-24{fill:url(#linear-gradient-33);}.cls-25{fill:url(#linear-gradient-29);}.cls-26{fill:url(#linear-gradient-30);}.cls-27{fill:url(#linear-gradient-23);}.cls-28{fill:url(#linear-gradient-19);}.cls-29{fill:url(#linear-gradient-4);}.cls-30{fill:url(#linear-gradient-8);}.cls-31{fill:url(#linear-gradient-12);}.cls-32{fill:url(#linear-gradient-13);}.cls-33{fill:url(#linear-gradient-26);}</style><linearGradient id="linear-gradient" x1="250.49" y1="163.92" x2="263.35" y2="163.92" gradientUnits="userSpaceOnUse"><stop offset="0" stop-color="#b99d22"/><stop offset="1" stop-color="#635412"/></linearGradient><linearGradient id="linear-gradient-2" x1="248.53" y1="156.94" x2="260.73" y2="156.94" xlink:href="#linear-gradient"/><linearGradient id="linear-gradient-3" x1="246.4" y1="153.25" x2="258.6" y2="153.25" xlink:href="#linear-gradient"/><linearGradient id="linear-gradient-4" x1="244.27" y1="149.57" x2="256.48" y2="149.57" xlink:href="#linear-gradient"/><linearGradient id="linear-gradient-5" x1="273.08" y1="182.28" x2="282.99" y2="182.28" xlink:href="#linear-gradient"/><linearGradient id="linear-gradient-6" x1="269.68" y1="178.3" x2="278.66" y2="178.3" xlink:href="#linear-gradient"/><linearGradient id="linear-gradient-7" x1="266" y1="176.18" x2="274.98" y2="176.18" xlink:href="#linear-gradient"/><linearGradient id="linear-gradient-8" x1="243.87" y1="101.86" x2="258.91" y2="101.86" xlink:href="#linear-gradient"/><linearGradient id="linear-gradient-9" x1="283.51" y1="20.16" x2="323.83" y2="20.16" xlink:href="#linear-gradient"/><linearGradient id="linear-gradient-10" x1="263.35" y1="50.89" x2="344.79" y2="50.89" xlink:href="#linear-gradient"/><linearGradient id="linear-gradient-11" x1="300.07" y1="132.48" x2="364.17" y2="132.48" gradientTransform="translate(-3.23 7.73) rotate(-1.45)" xlink:href="#linear-gradient"/><linearGradient id="linear-gradient-12" x1="294.08" y1="110.9" x2="313.19" y2="110.9" gradientTransform="translate(606.64 266.85) rotate(-179.63)" xlink:href="#linear-gradient"/><linearGradient id="linear-gradient-13" x1="231.36" y1="129.22" x2="375.99" y2="129.22" xlink:href="#linear-gradient"/><linearGradient id="linear-gradient-14" x1="222.42" y1="129.22" x2="384.93" y2="129.22" xlink:href="#linear-gradient"/><linearGradient id="linear-gradient-15" x1="262.33" y1="82.17" x2="276.23" y2="82.17" xlink:href="#linear-gradient"/><linearGradient id="linear-gradient-16" x1="270.55" y1="78.49" x2="280.04" y2="78.49" xlink:href="#linear-gradient"/><linearGradient id="linear-gradient-17" x1="294.11" y1="69.54" x2="303.39" y2="69.54" xlink:href="#linear-gradient"/><linearGradient id="linear-gradient-18" x1="303.86" y1="69.54" x2="307.8" y2="69.54" xlink:href="#linear-gradient"/><linearGradient id="linear-gradient-19" x1="308.85" y1="69.54" x2="312.8" y2="69.54" xlink:href="#linear-gradient"/><linearGradient id="linear-gradient-20" x1="301.46" y1="188.48" x2="310.82" y2="188.48" xlink:href="#linear-gradient"/><linearGradient id="linear-gradient-21" x1="296.85" y1="188.58" x2="300.8" y2="188.58" xlink:href="#linear-gradient"/><linearGradient id="linear-gradient-22" x1="329.1" y1="180.71" x2="339.51" y2="180.71" xlink:href="#linear-gradient"/><linearGradient id="linear-gradient-23" x1="348.88" y1="155.27" x2="361.38" y2="155.27" xlink:href="#linear-gradient"/><linearGradient id="linear-gradient-24" x1="345.89" y1="163.49" x2="359.04" y2="163.49" xlink:href="#linear-gradient"/><linearGradient id="linear-gradient-25" x1="347.72" y1="102.44" x2="360.22" y2="102.44" xlink:href="#linear-gradient"/><linearGradient id="linear-gradient-26" x1="345.22" y1="98.11" x2="357.72" y2="98.11" xlink:href="#linear-gradient"/><linearGradient id="linear-gradient-27" x1="329.9" y1="79.4" x2="339.39" y2="79.4" xlink:href="#linear-gradient"/><linearGradient id="linear-gradient-28" x1="357.09" y1="134.23" x2="369.25" y2="134.23" xlink:href="#linear-gradient"/><linearGradient id="linear-gradient-29" x1="357.09" y1="129.23" x2="369.25" y2="129.23" xlink:href="#linear-gradient"/><linearGradient id="linear-gradient-30" x1="357.09" y1="124.23" x2="369.25" y2="124.23" xlink:href="#linear-gradient"/><linearGradient id="linear-gradient-31" x1="238.39" y1="133.92" x2="250.55" y2="133.92" xlink:href="#linear-gradient"/><linearGradient id="linear-gradient-32" x1="238.39" y1="126.67" x2="250.55" y2="126.67" xlink:href="#linear-gradient"/><linearGradient id="linear-gradient-33" x1="298.29" y1="43.32" x2="309.86" y2="43.32" xlink:href="#linear-gradient"/></defs><g><path class="cls-22" d="M251.02,161.61c.5,.61,.77,.66,2.53,.19,1.35-.39,5.76-1.62,9.54-2.76l.25,.43c-2.57,2.39-5.81,5.47-7.45,7.06-1.06,1.02-1.15,1.29-.9,1.96l-.53,.31-1.63-2.82,.54-.31c.57,.64,.74,.56,1.36,0,1.09-1,3.87-3.63,5.56-5.25l-.02-.03c-2.55,.75-5.2,1.54-6.86,2.11-1.18,.4-1.36,.52-1.04,1.45l-.53,.31-1.35-2.34,.53-.31Z"/><path class="cls-1" d="M260.73,155.34l-.52,.3c-.55-.72-.71-.75-2.09,.05l-6.31,3.64c-1.38,.79-1.44,.95-1.09,1.79l-.52,.3-1.68-2.9,.52-.3c.54,.72,.7,.74,2.08-.06l6.32-3.64c1.37-.8,1.45-.95,1.09-1.78l.51-.3,1.68,2.9Z"/><path class="cls-21" d="M258.6,151.67l-.52,.31c-.55-.73-.71-.75-2.09,.04l-6.32,3.65c-1.38,.8-1.44,.95-1.09,1.78l-.51,.3-1.68-2.9,.52-.3c.55,.73,.7,.74,2.08-.05l6.31-3.65c1.38-.79,1.45-.94,1.09-1.77l.52-.31,1.68,2.9Z"/><path class="cls-29" d="M256.48,147.99l-.52,.3c-.55-.73-.71-.75-2.09,.04l-6.32,3.65c-1.38,.79-1.44,.95-1.09,1.78l-.52,.3-1.68-2.9,.52-.31c.55,.73,.71,.75,2.08-.05l6.32-3.64c1.37-.8,1.44-.94,1.09-1.78l.52-.3,1.68,2.9Z"/></g><g><path class="cls-16" d="M273.39,184.16c.73,.27,.99,.18,2.28-1.1,.99-1.01,4.18-4.28,6.89-7.17l.43,.25c-1.02,3.36-2.29,7.64-2.92,9.85-.41,1.4-.36,1.7,.21,2.15l-.31,.54-2.82-1.63,.31-.54c.81,.27,.91,.12,1.18-.69,.43-1.41,1.53-5.07,2.18-7.33l-.03-.02c-1.83,1.93-3.73,3.93-4.88,5.26-.82,.93-.91,1.13-.18,1.77l-.31,.54-2.34-1.35,.31-.53Z"/><path class="cls-8" d="M278.66,173.87l-.3,.52c-.83-.35-.99-.29-1.78,1.09l-3.64,6.32c-.8,1.38-.77,1.54-.05,2.09l-.3,.52-2.91-1.68,.3-.52c.83,.35,.98,.29,1.78-1.09l3.64-6.31c.79-1.38,.78-1.54,.05-2.08l.3-.52,2.9,1.67Z"/><path class="cls-17" d="M274.98,171.75l-.3,.53c-.84-.35-.99-.29-1.79,1.08l-3.65,6.32c-.8,1.37-.77,1.54-.04,2.09l-.3,.52-2.9-1.68,.3-.52c.83,.35,.98,.28,1.78-1.09l3.64-6.32c.8-1.38,.78-1.54,.06-2.08l.3-.52,2.9,1.67Z"/></g><path class="cls-30" d="M256.85,104.22l-.52-.3c.28-.85,.09-.96-.57-1.06-.54-.05-1.57-.16-3.91-.42,.84,1.24,1.65,2.34,2.23,3.1,.53,.68,.72,.66,1.34-.04l.52,.3-1.67,2.89-.52-.29c.28-.71,.27-1.26-.08-1.93-.44-.77-1.37-2.3-2.59-4.08-1.65-.17-3.12-.32-4.62-.46-1.11-.1-1.5,.02-2.09,.78l-.51-.3,1.93-3.35,.52,.3c-.23,.78-.05,.88,.43,.93,.81,.12,1.94,.24,3.31,.35-.55-.88-1.18-1.76-1.75-2.48-.49-.62-.68-.66-1.3,.01l-.52-.3,1.62-2.82,.52,.3c-.34,.88-.32,1.26,.24,2.27,.38,.7,1.01,1.66,1.9,3.06,1.87,.17,3.57,.33,5.3,.48,1.36,.1,1.73-.05,2.32-.8l.51,.3-2.06,3.57Z"/><path class="cls-19" d="M283.51,20.16l10.63-1.83s-.58-3.68,3.24-3.82c-1.03,1.03-.91,2.98,.38,4.07,1.28,1.09,3.72,.79,4.41,.09,.69-.7,1-3.13-.09-4.42-1.09-1.3-3.05-1.4-4.07-.37,.14-3.83,3.83-3.25,3.83-3.25l1.82-10.63,1.83,10.63s3.69-.58,3.82,3.25c-1.03-1.03-2.98-.92-4.07,.37-1.09,1.28-.78,3.72-.09,4.42,.69,.7,3.13,1,4.41-.09,1.29-1.09,1.41-3.04,.38-4.07,3.82,.14,3.24,3.82,3.24,3.82l10.63,1.83-10.63,1.83s.58,3.68-3.24,3.82c1.02-1.02,.91-2.98-.38-4.07-1.28-1.09-3.72-.78-4.41-.09-.69,.69-1,3.13,.09,4.41,1.09,1.3,3.04,1.41,4.07,.39-.14,3.82-3.82,3.24-3.82,3.24l-1.83,10.63-1.82-10.63s-3.69,.58-3.83-3.24c1.03,1.02,2.98,.91,4.07-.39,1.09-1.28,.78-3.72,.09-4.41-.7-.7-3.14-1.01-4.41,.09-1.3,1.09-1.41,3.05-.38,4.07-3.82-.14-3.24-3.82-3.24-3.82l-10.63-1.83Z"/><path class="cls-11" d="M304.08,57.62c-.4,0-.62-.32-.73-.85,0,0-.28-.94-.82-1.55-.96-1.09-2.81-4.94-7.07-4.94-7.7,0-15.64,7.26-25.43,6.63-3.51-.22-6.68-2.86-6.68-6.38s3.16-6.39,6.69-6.38c1.21,0,3.06,.26,5.5,1.62,3.83,2.14,5.57,2.3,5.57,2.3,.33,0,.6,.28,.6,.61s-.27,.62-.6,.62c0,0-1.35,.18-5.26,2.54-2.38,1.44-3.64,1.55-4.85,1.55-1.92,0-3.52-1.33-3.52-2.97,0-1.54,1.15-2.78,2.55-2.78,1.07,0,1.94,.73,1.94,1.63,0,0,.04,.87-.6,.87-.16,0-.28-.12-.28-.27,0-.19-.22-.66-.88-.66s-1.18,.41-1.18,1.21,1,1.47,2.21,1.47,2.87-.96,2.87-2.8-2.13-3.32-4.05-3.32-5.01,1.52-5.01,4.57,2.62,5.09,6.04,5.09,7.26-1.88,7.26-1.88c17.53-9.92,25.74-9.28,25.74-9.28,0,0,8.21-.63,25.73,9.28,0,0,3.83,1.88,7.25,1.88s6.04-2.03,6.04-5.09-3.09-4.57-5.01-4.57-4.05,1.48-4.05,3.32,1.65,2.8,2.87,2.8,2.21-.66,2.21-1.47-.51-1.21-1.18-1.21-.88,.47-.88,.66c0,.16-.12,.27-.28,.27-.64,0-.6-.87-.6-.87,0-.9,.86-1.63,1.93-1.63,1.4,0,2.54,1.25,2.54,2.78,0,1.64-1.61,2.97-3.52,2.97-1.21,0-2.46-.11-4.86-1.55-3.9-2.36-5.25-2.54-5.25-2.54-.33,0-.61-.29-.61-.62s.28-.61,.61-.61c0,0,1.74-.15,5.57-2.3,2.44-1.35,4.29-1.61,5.49-1.62,3.52-.02,6.69,2.85,6.69,6.38s-3.16,6.16-6.68,6.38c-9.8,.63-17.73-6.63-25.42-6.63-4.27,0-6.12,3.85-7.08,4.94-.54,.61-.81,1.55-.81,1.55-.12,.52-.33,.85-.72,.85Z"/><path class="cls-10" d="M363.35,130.63l-31.75,.8c-.26,0-.39-.03-.48-.18-.21-.37-.6-1.07-.72-1.27-.18-.31-.46-.22-.45,.1v.31c-1.05,.85-2.18,.78-3.03-.09-.19-.19-.19-.47,.04-.51,.49-.08,.75-.68,.39-1.12-.33-.4-1.05-.29-1.18,.34-.06,.28-.47,.35-.63,.09-.46-.74-1.04-1.21-1.99-1.45-.15-.03-.18-.09-.13-.15,.2-.28-.03-.73-.4-.72-.2,0-.35,.13-.41,.28-.29-.17-.63-.29-1.03-.35-1.1-.14-2.41,.27-3.15,1.33-.21,.29-.25,.3-.55-.01-.21-.21-.35-.33-.56-.48-.36-.26-.62-.12-.42,.49,.35,1.07,.11,1.84-.51,2.38-.44-.13-.92-.2-1.43-.19-1.01,.03-2.23,.54-3.09,1.23-.07,.05-.12,.09-.17,.11-.05,0-.1,0-.15,0-.03-.02-.05-.06-.08-.13-.36-.9-1.25-1.52-2.27-1.49-.88,.02-1.63,.52-2.03,1.24-.54-1.39-1.91-2.37-3.51-2.33-2.02,.05-3.62,1.71-3.56,3.71s1.73,3.57,3.75,3.51c1.6-.04,2.92-1.09,3.38-2.5,.43,.7,1.21,1.16,2.09,1.14,1.02-.03,1.88-.69,2.19-1.6,.02-.06,.05-.1,.07-.13,.05,0,.1,0,.15,0,.05,.02,.1,.06,.17,.11,.9,.65,2.13,1.1,3.15,1.07,.5-.01,.98-.11,1.41-.26,.65,.51,.92,1.27,.63,2.36-.17,.61,.09,.74,.44,.46,.2-.16,.33-.28,.54-.51,.28-.33,.32-.33,.55-.04,.8,1.01,2.13,1.35,3.21,1.16,.4-.07,.73-.22,1.01-.4,.07,.15,.22,.27,.43,.26,.37,0,.58-.47,.36-.74-.05-.06-.02-.12,.12-.17,.94-.29,1.5-.78,1.92-1.55,.15-.27,.57-.21,.64,.06,.16,.61,.89,.69,1.2,.27,.33-.45,.05-1.04-.45-1.1-.23-.02-.24-.31-.07-.5,.81-.92,1.94-1.04,3.03-.24v.3c.02,.33,.3,.4,.46,.08,.11-.2,.47-.92,.66-1.3,.08-.15,.2-.19,.47-.2l31.75-.8c.56-.01,.81-.2,.81-.38s-.26-.35-.82-.34Zm-59.58,2.45c-.33,0-.61-.25-.61-.57s.26-.6,.58-.61,.61,.25,.62,.58-.25,.59-.59,.6Zm18.26-5.17c-.83,.53-1.03,1.51-.78,2.11,.07,.18,.04,.28-.27,.26-.52-.03-.95-.31-1.28-.59-.2-.18-.34-.08-.27,.16,.08,.29,.55,.67,.77,.78,.13,.07,.16,.11-.02,.17-.36,.13-.65,.3-.93,.49,0-.06-.02-.11-.03-.17-.03-.03-.06-.08-.09-.15-.95-2.27,1.35-3.91,2.91-3.06Zm-2.63,4.37s0-.09,0-.13c0-.07-.03-.14-.04-.21,.33-.33,1.48-.89,2.53-.92,1.29-.03,2.72,.59,2.72,.94s-1.39,1.05-2.67,1.08c-1.02,.03-2.15-.44-2.54-.76Zm-1.51-1.25s.04,.09,.07,.14c-.12-.08-.25-.16-.39-.24,.14-.1,.23-.07,.33,.1Zm-1.03,1.8c-.29-.18-.61-.35-.82-.41-.25-.08-.33-.14-.33-.22,0-.09,.07-.15,.32-.24,.21-.08,.51-.26,.8-.46,.49,.25,.83,.52,.84,.64s-.33,.41-.81,.69Zm-1.88-1.83c.12,0,.25,0,.37,.02-.59,.23-1.3,.38-2.07,.46,.47-.25,1.07-.47,1.7-.48Zm-5.04,.6c-.41,0-.84-.02-1.29-.05,.16-.12,.36-.22,.58-.22,.27,0,.52,.1,.71,.27Zm-1.24,1.59c.44-.05,.86-.08,1.27-.11-.18,.17-.42,.29-.68,.3-.22,0-.41-.07-.58-.19Zm6.34,.23c-.63,.02-1.24-.17-1.72-.4,.78,.04,1.49,.16,2.09,.35-.12,.02-.25,.04-.37,.04Zm2.91-.17c-.09,.17-.18,.21-.32,.11,.13-.08,.26-.17,.38-.26-.02,.05-.03,.1-.06,.14Zm1.24,0c.06-.17,.12-.23,.21-.21,0-.01,0-.03,0-.04,.26,.14,.53,.28,.85,.37,.19,.05,.16,.09,.03,.17-.21,.12-.67,.53-.73,.81-.06,.25,.08,.34,.27,.15,.31-.3,.73-.6,1.24-.66,.32-.03,.35,.07,.29,.25-.21,.61,.04,1.58,.89,2.06-1.52,.92-3.89-.6-3.05-2.91Zm3.83,2.5c-.15-.07-.3-.16-.43-.25,0,0,0,0,0,.01,.02,.03,.02,.07,.03,.1-.02,0-.04,0-.05-.02-.75-.43-.77-1.6,.09-1.91,.19-.07,.28,0,.18,.3-.13,.43,.3,.92,.85,.73,.46-.16,.6-.85,.09-1.16-.17-.1-.11-.19,.04-.27,.36-.17,.78-.44,1.11-.7,.22-.18,.34-.11,.4,.24,.3,1.85-1.19,3.07-2.31,2.92Zm2.26-4.65c-.04,.36-.15,.44-.39,.27-.35-.25-.78-.49-1.14-.65-.16-.06-.22-.15-.05-.26,.5-.34,.32-1.02-.15-1.15-.55-.16-.96,.35-.81,.77,.11,.28,.03,.36-.17,.3-.88-.26-.91-1.43-.19-1.9,1.08-.7,3.13,.5,2.9,2.62Zm.54,1.35c-.06-.11-.12-.22-.17-.29-.1-.14-.1-.15-.1-.2,0-.06,0-.07,.09-.21,.04-.07,.1-.18,.16-.3,.55,.19,.9,.39,.9,.48s-.34,.3-.88,.52Zm3.61-.15s-.04-.03-.06-.05c.39-.15,.6-.05,.63,.45-.18-.16-.38-.3-.57-.4Zm-.07-.84s.03-.03,.05-.05c.19-.11,.38-.26,.55-.43,0,.49-.2,.6-.6,.47Z"/><path class="cls-31" d="M295.48,158.55c.12-.09,.22-.04,.3,.23,.47,1.74,1.35,2.79,2.72,3.6,.48,.29,.36,1.05-.16,1.16-1.13,.27-1.31,1.59-.57,2.18,.81,.64,1.91,.15,2.03-.76,.06-.42,.58-.42,.93-.09,1.67,1.57,1.8,3.69,.19,5.69-.33,.41-.19,.82,.36,.52,.59-.33,1.2-1.02,1.56-1.67,.12-.21,.34-.2,.33,.15l-.06,9.41c0,.58,.24,.9,.46,.9s.48-.31,.48-.9l.06-9.41c0-.35,.22-.36,.34-.15,.35,.66,.94,1.36,1.54,1.69,.54,.31,.69-.1,.36-.51-1.58-2.01-1.42-4.13,.26-5.68,.36-.33,.88-.32,.93,.1,.11,.91,1.21,1.42,2.02,.79,.75-.58,.59-1.91-.55-2.19-.5-.12-.62-.88-.13-1.16,1.38-.79,2.27-1.83,2.77-3.56,.07-.27,.17-.32,.29-.23,.5,.39,1.34-.01,1.34-.69s-.68-1.05-1.22-.8c-.2,.09-.33-.02-.47-.39-.74-2.09-2.88-2.69-4.13-2.23-.33,.12-.52,.07-.47-.52,.06-.64,.33-1.19,.65-1.67,.72-.17,1.28-.82,1.44-1.8,.17-1.06-.19-2.33-1.23-3.09-.29-.21-.29-.25,.03-.53,.22-.2,.34-.33,.5-.53,.27-.34,.14-.59-.47-.42-.41,.12-.77,.15-1.1,.11,.36-.94,.6-1.98,.61-3.1,.01-1.85-.85-4.11-2.07-5.73-.29-.38-.4-.57,.04-.72,1.66-.61,2.85-2.2,2.86-4.07,.02-2.42-1.92-4.39-4.34-4.41s-4.38,1.93-4.39,4.35c-.01,1.87,1.15,3.48,2.81,4.11,.43,.16,.32,.34,.03,.72-1.24,1.6-2.13,3.85-2.14,5.7,0,1.12,.22,2.16,.57,3.11-.33,.03-.69,0-1.1-.13-.6-.18-.74,.06-.47,.41,.15,.2,.27,.33,.49,.53,.32,.28,.32,.32,.02,.53-1.04,.74-1.42,2.01-1.26,3.07,.15,.99,.7,1.64,1.41,1.82,.32,.48,.58,1.04,.64,1.67,.04,.58-.15,.64-.47,.51-1.24-.48-3.39,.09-4.16,2.17-.14,.36-.28,.48-.47,.38-.54-.26-1.23,.1-1.23,.78s.82,1.09,1.33,.71Zm7.69,6.86c-.07,.12-.39,.14-.45,.02-.24-.49-.77-1.08-1.22-1.59-.21-.24-.21-.48,.04-.55,.56-.16,1.41-.59,1.76-.81,0,0,0,0,.02-.01l-.02,2.79s-.1,.07-.13,.13Zm.39-20.35c.09-.24,.15-.31,.23-.31,.09,0,.15,.07,.23,.31,.14,.39,.66,1.16,.92,1.43,0,0,0,0,0,0-.1,.18-.2,.35-.31,.5-.31,.13-.61,.23-.86,.23s-.54-.1-.84-.23c-.1-.15-.2-.32-.3-.51h0c.26-.27,.79-1.03,.93-1.42Zm.2,5.73c.22,0,.6,.51,.96,1.28-.05,1.85-.81,3.3-1,3.3s-.92-1.46-.95-3.3c.37-.77,.77-1.28,.98-1.28Zm1.82,4.88c0,1-.23,2.03-.53,2.9h-.42c-.63,0-.69-.24-.47-.75,.41-.88,.94-2.26,1.28-3.55,.09,.47,.15,.94,.14,1.4Zm-.9,3.78c-.21,.43-.43,.76-.63,.95v-.28c0-.25,.05-.38,.2-.45,.12-.06,.27-.14,.43-.22Zm-1.41-1.64c.23,.51,.14,.74-.48,.74h-.42c-.29-.87-.5-1.91-.5-2.91,0-.46,.06-.94,.16-1.4,.33,1.3,.84,2.68,1.24,3.57Zm-.12,1.85c.14,.08,.19,.2,.18,.46v.28c-.2-.2-.41-.53-.61-.95,.15,.08,.3,.16,.42,.22Zm2.69,4.21c-.46,.5-.99,1.08-1.24,1.57-.06,.12-.38,.09-.45-.03-.04-.06-.09-.1-.13-.14l.02-2.8s.01,0,.02,.02c.34,.22,1.19,.67,1.74,.83,.26,.07,.26,.31,.04,.55Zm4.4-7.15c1.22,2.01-1.09,5.71-4.97,5.15-.65-.1-.79-.3-.46-.72,.47-.62,.94-1.4,1.25-2.06,.13-.28,.29-.39,.48-.08,.6,.93,1.84,.64,2.12-.2,.33-1-.58-1.78-1.37-1.52-.52,.18-.66,.03-.55-.33,.52-1.59,2.66-1.59,3.49-.23Zm-4.32-4.59c.08-.07,.19-.06,.34,.02,.11,.06,.23,.1,.34,.14-.09,.12-.17,.23-.21,.32-.13,.24-.21,.29-.31-.06-.05-.15-.1-.28-.16-.42Zm1.76-.87c-.24,.26-.65,.15-.52-.25,.25-.74,.12-1.28-.16-1.47-.24-.16-.66-.07-1.25,.21-.08,.03-.22-.03-.29-.17-.09-.19-.2-.4-.32-.6,.26-.33,.52-.69,.77-1.08,1.84,.03,2.86,2.11,1.76,3.35Zm-1.65-8.24c0,.78-.23,1.61-.54,2.36-.61-.76-.88-2.03-.94-3.48-.03-.68-.04-1.8,.04-3.11,.65,.9,1.44,2.52,1.43,4.23Zm-4.02-10.56c0-1.04,.85-1.87,1.89-1.86s1.87,.85,1.86,1.89-.85,1.87-1.89,1.86-1.87-.86-1.86-1.89Zm1.07,6.33c.06,1.31,.04,2.43,0,3.1-.07,1.44-.36,2.71-.98,3.46-.3-.75-.51-1.59-.51-2.36,.01-1.7,.81-3.31,1.48-4.2Zm-1.44,9.09c.24,.4,.5,.76,.76,1.09-.12,.2-.24,.41-.33,.59-.08,.14-.21,.2-.29,.16-.58-.28-1-.38-1.25-.22-.27,.19-.41,.72-.17,1.46,.13,.4-.28,.5-.52,.24-1.09-1.26-.04-3.33,1.8-3.33Zm-.06,4.22c-.06,.14-.11,.27-.16,.41-.11,.34-.18,.29-.32,.05-.05-.09-.12-.2-.21-.32,.12-.04,.23-.08,.35-.14,.15-.08,.26-.08,.33-.01Zm-4.38,4.54c.84-1.34,2.98-1.32,3.48,.28,.11,.36-.03,.5-.55,.32-.78-.27-1.7,.5-1.38,1.51,.27,.84,1.51,1.15,2.12,.23,.2-.31,.36-.2,.49,.09,.3,.67,.76,1.45,1.22,2.07,.32,.42,.18,.63-.47,.71-3.89,.51-6.15-3.22-4.9-5.21Z"/><path class="cls-32" d="M231.36,129.22c0,39.87,32.44,72.31,72.31,72.31s72.32-32.44,72.32-72.31-32.44-72.31-72.32-72.31-72.31,32.43-72.31,72.31Zm3.11,0c0-38.17,31.05-69.21,69.2-69.21s69.21,31.05,69.21,69.21-31.05,69.21-69.21,69.21-69.2-31.05-69.2-69.21Z"/><path class="cls-5" d="M223.92,129.22c0,43.98,35.78,79.75,79.76,79.75s79.76-35.78,79.76-79.75-35.78-79.76-79.76-79.76-79.76,35.77-79.76,79.76Zm.62,0c0-43.64,35.51-79.14,79.14-79.14s79.14,35.51,79.14,79.14-35.5,79.14-79.14,79.14-79.14-35.5-79.14-79.14Z"/><g><path class="cls-3" d="M272.66,87.03l-.3-.51c.67-.6,.56-.79,.03-1.2-.43-.32-1.28-.93-3.17-2.31,.1,1.49,.25,2.85,.39,3.8,.12,.86,.28,.93,1.17,.64l.31,.51-2.89,1.68-.3-.52c.6-.47,.86-.95,.9-1.7,0-.89-.04-2.68-.2-4.83-1.34-.97-2.54-1.84-3.77-2.71-.91-.64-1.31-.73-2.2-.37l-.29-.51,3.35-1.94,.3,.52c-.59,.56-.48,.73-.09,1.02,.64,.51,1.56,1.17,2.69,1.97-.04-1.04-.14-2.12-.28-3.04-.12-.77-.26-.91-1.13-.64l-.3-.52,2.81-1.63,.3,.51c-.74,.6-.92,.94-.93,2.1-.02,.79,.04,1.94,.12,3.6,1.54,1.08,2.92,2.07,4.35,3.06,1.13,.77,1.52,.82,2.41,.47l.3,.51-3.57,2.06Z"/><path class="cls-12" d="M276.63,84.74l-.3-.52c.86-.63,.9-.8,.1-2.18l-3.64-6.31c-.79-1.38-.97-1.43-1.95-1l-.29-.52,3.42-1.97,.3,.52c-.86,.62-.89,.79-.09,2.16l3.64,6.32c.79,1.38,.96,1.43,1.93,1l.3,.52-3.41,1.98Z"/></g><g><g><path class="cls-2" d="M299.27,75.62v-.59c.88-.19,.88-.42,.63-1.03-.22-.49-.64-1.43-1.59-3.59-.66,1.35-1.21,2.6-1.57,3.47-.32,.81-.22,.95,.7,1.15v.59h-3.34v-.59c.76-.11,1.23-.39,1.64-1.03,.44-.77,1.3-2.33,2.24-4.28-.68-1.51-1.27-2.85-1.91-4.22-.47-1.01-.77-1.29-1.72-1.42v-.6h3.88v.6c-.8,.18-.78,.39-.59,.84,.3,.77,.77,1.79,1.35,3.05,.48-.91,.93-1.91,1.28-2.77,.29-.73,.24-.92-.66-1.12v-.6h3.25v.6c-.93,.15-1.26,.35-1.86,1.34-.41,.67-.93,1.71-1.7,3.18,.79,1.7,1.5,3.25,2.24,4.82,.59,1.23,.91,1.48,1.85,1.61v.59h-4.12Z"/><path class="cls-4" d="M303.86,75.62v-.59c1.05-.11,1.18-.25,1.18-1.84v-7.29c0-1.59-.13-1.72-1.18-1.83v-.6h3.94v.6c-1.06,.11-1.17,.24-1.17,1.83v7.29c0,1.59,.11,1.72,1.17,1.84v.59h-3.94Z"/><path class="cls-28" d="M308.85,75.62v-.59c1.06-.11,1.19-.25,1.19-1.84v-7.29c0-1.59-.13-1.72-1.19-1.83v-.6h3.94v.6c-1.06,.11-1.17,.24-1.17,1.83v7.29c0,1.59,.11,1.72,1.17,1.84v.59h-3.94Z"/></g><g><path class="cls-7" d="M301.46,194.04c.91-.13,1.13-.33,1.68-2.09,.41-1.37,1.74-5.8,2.8-9.65h.59c.93,3.42,2.16,7.76,2.82,9.99,.41,1.42,.63,1.64,1.47,1.76v.62h-3.83v-.62c.98-.17,1-.35,.8-1.18-.39-1.44-1.43-5.16-2.09-7.44h-.04c-.73,2.58-1.48,5.28-1.88,6.99-.29,1.22-.27,1.45,.86,1.63v.62h-3.17v-.62Z"/><path class="cls-14" d="M300.8,182.51v.59c-1.06,.11-1.19,.24-1.19,1.83v7.3c0,1.58,.13,1.72,1.19,1.83v.6h-3.94v-.6c1.05-.11,1.16-.25,1.16-1.83v-7.3c0-1.59-.11-1.72-1.16-1.83v-.59h3.94Z"/></g></g><path class="cls-20" d="M331.1,186.79c.72-.57,.8-.85,.4-2.64-.32-1.39-1.39-5.9-2.4-9.77l.51-.29c2.52,2.49,5.74,5.64,7.43,7.24,1.07,1.03,1.36,1.11,2.15,.79l.31,.54-3.32,1.91-.31-.53c.77-.64,.69-.81,.1-1.42-1.05-1.05-3.82-3.76-5.53-5.4l-.03,.03c.66,2.59,1.35,5.3,1.87,6.99,.36,1.2,.49,1.37,1.56,.97l.31,.54-2.75,1.58-.31-.54Z"/><g><path class="cls-27" d="M350.85,150.53l.52,.3c-.43,.97-.38,1.14,1,1.94l6.32,3.65c1.38,.8,1.55,.75,2.17-.11l.52,.3-1.97,3.41-.52-.29c.44-.97,.37-1.13-1.01-1.93l-6.31-3.65c-1.38-.79-1.55-.76-2.17,.1l-.52-.3,1.97-3.41Z"/><path class="cls-18" d="M353.83,168.46c.34-.85,.27-1.14-.98-2.49-.98-1.04-4.15-4.41-6.96-7.25l.29-.51c3.43,.9,7.8,2.01,10.05,2.56,1.44,.35,1.74,.27,2.26-.4l.54,.31-1.92,3.31-.53-.31c.34-.94,.19-1.04-.63-1.28-1.44-.39-5.18-1.34-7.49-1.92l-.03,.04c1.87,1.92,3.83,3.92,5.12,5.13,.9,.85,1.11,.94,1.83,.06l.53,.31-1.58,2.75-.53-.31Z"/></g><g><path class="cls-15" d="M360.22,101.1l-.52,.3c-.63-.86-.8-.9-2.18-.1l-6.32,3.65c-1.38,.79-1.42,.96-1,1.94l-.52,.3-1.97-3.42,.52-.3c.63,.86,.8,.9,2.17,.1l6.32-3.64c1.38-.8,1.44-.96,1.01-1.93l.51-.3,1.97,3.41Z"/><path class="cls-33" d="M357.72,96.77l-.51,.3c-.63-.86-.81-.9-2.18-.11l-6.32,3.65c-1.37,.79-1.42,.96-1,1.94l-.52,.3-1.97-3.41,.52-.3c.63,.86,.79,.89,2.17,.1l6.32-3.65c1.38-.79,1.43-.95,1-1.92l.52-.29,1.97,3.41Z"/></g><path class="cls-23" d="M339.39,75.12l-.3,.52c-.97-.44-1.15-.39-1.94,1l-3.65,6.31c-.79,1.38-.75,1.55,.11,2.18l-.3,.51-3.41-1.97,.3-.51c.97,.43,1.13,.37,1.92-1.01l3.65-6.32c.79-1.38,.76-1.54-.1-2.17l.3-.52,3.41,1.97Z"/><g><g><path class="cls-6" d="M369.25,136.2h-.6c-.11-1.06-.25-1.18-1.83-1.18h-7.29c-1.59,0-1.72,.12-1.83,1.18h-.6v-3.94h.6c.11,1.05,.24,1.17,1.83,1.17h7.29c1.58,0,1.72-.11,1.83-1.17h.6v3.94Z"/><path class="cls-25" d="M369.25,131.2h-.6c-.11-1.05-.25-1.18-1.83-1.18h-7.29c-1.59,0-1.72,.13-1.83,1.18h-.6v-3.94h.6c.11,1.06,.24,1.17,1.83,1.17h7.29c1.58,0,1.72-.11,1.83-1.17h.6v3.94Z"/><path class="cls-26" d="M369.25,126.2h-.6c-.11-1.06-.25-1.18-1.83-1.18h-7.29c-1.59,0-1.72,.12-1.83,1.18h-.6v-3.94h.6c.11,1.06,.24,1.17,1.83,1.17h7.29c1.58,0,1.72-.11,1.83-1.17h.6v3.94Z"/></g><g><path class="cls-13" d="M250.55,135.89h-.6c-.12-1.06-.25-1.18-1.83-1.18h-7.29c-1.59,0-1.72,.12-1.83,1.18h-.6v-3.94h.6c.11,1.06,.24,1.17,1.83,1.17h7.29c1.59,0,1.72-.11,1.83-1.17h.6v3.94Z"/><path class="cls-9" d="M250.55,126.15h-.6c-.19-.88-.41-.88-1.03-.63-.48,.21-1.44,.64-3.59,1.6,1.34,.66,2.6,1.2,3.48,1.56,.8,.33,.95,.22,1.14-.7h.6v3.34h-.6c-.12-.75-.39-1.22-1.03-1.63-.77-.44-2.33-1.31-4.28-2.23-1.51,.67-2.86,1.27-4.22,1.91-1.01,.46-1.29,.76-1.42,1.71h-.6v-3.88h.6c.19,.8,.39,.79,.84,.59,.77-.3,1.8-.78,3.05-1.34-.91-.49-1.91-.94-2.76-1.28-.73-.28-.92-.22-1.12,.66h-.6v-3.26h.6c.15,.94,.36,1.27,1.35,1.85,.67,.41,1.7,.94,3.18,1.71,1.7-.8,3.25-1.5,4.82-2.24,1.24-.59,1.48-.91,1.61-1.86h.6v4.12Z"/></g></g><path class="cls-24" d="M306.18,33.94c0,.73,.59,1.31,1.32,1.31v2.13c1.43,1.34,2.36,3.51,2.36,5.94s-.93,4.6-2.36,5.93v2.14c-.73,0-1.32,.59-1.32,1.31h-4.21c0-.72-.59-1.31-1.31-1.31v-2.14c-1.44-1.33-2.37-3.5-2.37-5.93s.93-4.59,2.36-5.94v-2.13c.73,0,1.32-.58,1.32-1.31h4.21Z"/></svg>